<?xml version="1.0" encoding="UTF-8"?><svg xmlns="http://www.w3.org/2000/svg" viewBox="0 0 120 120"><defs><style>.d{fill:#fff;}.e{fill:#f43838;}.f{fill:none;}.g{fill:#1b1b21;}</style></defs><g id="a"/><g id="b"><g id="c"><g><g><path class="d" d="M86.11,83.01l-26.05-.03v-.03l-26.05,.03-4.78,8.54c-.4,.98-.44,2.07-.11,3.07l6.17,17.94c.35,1.05,1.28,1.81,2.39,1.94l7.31,.84c1.73,.2,3.24-1.18,3.19-2.91l-.34-11.3c0-.26,.37-.32,.44-.06l3.52,13.2c.3,1.14,1.28,1.97,2.46,2.1l5.81,.63v.03l5.81-.63c1.18-.13,2.15-.96,2.46-2.1l3.52-13.2c.07-.25,.45-.2,.44,.06l-.34,11.3c-.05,1.73,1.46,3.11,3.19,2.91l7.3-.84c1.12-.13,2.05-.89,2.39-1.96l6.06-17.97c.32-.98,.28-2.03-.09-2.99l-4.67-8.58Z"/><path class="d" d="M110.51,47.55c0,14.24-3.17,27.79-14.11,37.14-9.06,7.75-22.96,12.62-36.41,12.62s-27.33-4.87-36.39-12.61c-10.95-9.35-14.13-22.91-14.13-37.16C9.47,21.5,35.38,3,59.99,3s50.52,18.5,50.52,44.55Z"/><path class="g" d="M52.07,71.11c1.36-1.18,.81-3.39-.94-3.8-5.86-1.38-17.18-4.2-21.33-6.36-2.95-1.54-5.84-3.6-7.96-5.24-1.3-1.01-3.16,.09-2.91,1.7,1.09,6.89,4.64,19.26,16.01,19.26,8.92,0,14.27-3.1,17.12-5.56Z"/><path class="g" d="M67.72,71.11c-1.36-1.18-.81-3.39,.94-3.8,5.86-1.38,17.18-4.2,21.33-6.36,2.95-1.54,5.84-3.6,7.96-5.24,1.3-1.01,3.16,.09,2.91,1.7-1.09,6.89-4.64,19.26-16.01,19.26-8.92,0-14.27-3.1-17.12-5.56Z"/><path class="g" d="M60.63,70.53c-.2-.12-.43-.18-.7-.18-.01,0-.03,0-.04,0-.01,0-.03,0-.04,0-.27,0-.5,.06-.7,.18-3.86,1.8-6.87,16.36-3.7,16.36,1.89,0,4.12-1.93,4.44-2.22,.32,.29,2.56,2.22,4.44,2.22,3.23,0,.15-14.56-3.7-16.36Z"/><g><path class="d" d="M34.14,59.19l-5.79,9.27c-.19,.3-.06,.7,.27,.83l6,2.39c.26,.1,.41,.38,.35,.66l-1.66,7.28c-.14,.61,.67,.97,1.03,.45l6.93-9.95c.21-.31,.08-.73-.27-.86l-6.44-2.4c-.25-.09-.41-.35-.37-.62l.99-6.66c.09-.61-.73-.91-1.06-.38Z"/><path class="d" d="M33.89,81.11c-.19,0-.38-.04-.56-.12-.61-.27-.94-.91-.79-1.56l1.61-7.09-5.82-2.31c-.38-.15-.67-.46-.8-.84-.13-.39-.08-.8,.14-1.15l5.79-9.27c.35-.56,1.03-.79,1.65-.56,.62,.23,.99,.84,.89,1.49l-.96,6.48,6.27,2.34c.4,.15,.7,.47,.83,.87,.13,.41,.06,.84-.18,1.19l-6.93,9.95c-.27,.38-.69,.59-1.13,.59Zm-4.71-12.46l5.75,2.28c.63,.25,.98,.91,.83,1.57l-1.39,6.13,6.09-8.74-6.17-2.3c-.6-.22-.97-.85-.88-1.48l.83-5.57-5.06,8.1Z"/></g><path class="e" d="M34.14,59.19l-5.79,9.27c-.19,.3-.06,.7,.27,.83l6,2.39c.26,.1,.41,.38,.35,.66l-1.66,7.28c-.14,.61,.67,.97,1.03,.45l6.93-9.95c.21-.31,.08-.73-.27-.86l-6.44-2.4c-.25-.09-.41-.35-.37-.62l.99-6.66c.09-.61-.73-.91-1.06-.38Z"/><path class="d" d="M110.67,77.59h-1.84c-4.58,0-8.09-4.05-7.41-8.55l3.67-24.27c.55-3.64,3.7-6.33,7.41-6.33h0c4.36,0,7.79,3.68,7.47,8l-1.84,24.27c-.29,3.88-3.55,6.88-7.47,6.88Z"/><path class="d" d="M9.33,77.59h1.84c4.58,0,8.09-4.05,7.41-8.55l-3.67-24.27c-.55-3.64-3.7-6.33-7.41-6.33h0c-4.36,0-7.79,3.68-7.47,8l1.84,24.27c.29,3.88,3.55,6.88,7.47,6.88Z"/></g><rect class="f" width="120" height="120"/></g></g></g></svg>