<?xml version="1.0" encoding="UTF-8"?><svg xmlns="http://www.w3.org/2000/svg" viewBox="0 0 404.95 387.24"><defs><style>.d{fill:#fff;}.e{fill:#f43838;}.f{fill:#1b1b21;}</style></defs><g id="a"/><g id="b"><g id="c"><g><path class="f" d="M290.59,271.77l-87.91-.09v-.09l-87.91,.09-16.13,29.01c-1.35,3.32-1.48,7.02-.37,10.42l20.82,60.95c1.17,3.58,4.32,6.15,8.06,6.59l24.66,2.87c5.85,.68,10.95-3.99,10.77-9.88l-1.16-38.4c-.03-.89,1.25-1.08,1.48-.21l11.87,44.85c1.02,3.86,4.32,6.7,8.29,7.13l19.62,2.14v.09l19.62-2.14c3.97-.43,7.26-3.27,8.29-7.13l11.87-44.85c.23-.86,1.5-.68,1.48,.21l-1.16,38.4c-.18,5.89,4.91,10.56,10.77,9.88l24.62-2.87c3.76-.44,6.92-3.04,8.08-6.64l20.44-61.04c1.06-3.32,.95-6.91-.32-10.15l-15.77-29.14Z"/><path class="f" d="M372.92,151.32c0,48.38-10.71,94.4-47.62,126.17-30.59,26.33-77.47,42.87-122.85,42.87s-92.23-16.53-122.81-42.83c-36.94-31.77-47.67-77.81-47.67-126.21C31.97,62.85,119.39,0,202.44,0s170.48,62.85,170.48,151.32Z"/><path class="d" d="M175.7,231.37c4.59-4,2.74-11.51-3.18-12.91-19.76-4.67-57.98-14.26-71.97-21.6-9.95-5.23-19.69-12.21-26.86-17.81-4.38-3.42-10.67,.29-9.81,5.78,3.68,23.4,15.64,65.42,54.04,65.42,30.09,0,48.16-10.51,57.78-18.88Z"/><path class="d" d="M228.53,231.37c-4.59-4-2.74-11.51,3.18-12.91,19.76-4.67,57.98-14.26,71.97-21.6,9.95-5.23,19.69-12.21,26.86-17.81,4.38-3.42,10.67,.29,9.81,5.78-3.68,23.4-15.64,65.42-54.04,65.42-30.09,0-48.16-10.51-57.78-18.88Z"/><path class="d" d="M204.59,229.38c-.68-.4-1.46-.62-2.36-.62-.05,0-.09,0-.14,0-.05,0-.09,0-.14,0-.9,0-1.69,.22-2.36,.62-13.02,6.11-23.19,55.58-12.5,55.58,6.37,0,13.91-6.57,15-7.54,1.08,.97,8.63,7.54,15,7.54,10.9,0,.52-49.47-12.5-55.58Z"/><g><path class="d" d="M115.22,190.86l-19.53,31.5c-.63,1.02-.19,2.37,.93,2.82l20.26,8.1c.88,.35,1.38,1.3,1.17,2.23l-5.59,24.73c-.47,2.08,2.27,3.28,3.48,1.53l23.4-33.81c.72-1.04,.27-2.47-.91-2.92l-21.74-8.15c-.85-.32-1.37-1.19-1.24-2.1l3.34-22.64c.31-2.08-2.46-3.09-3.56-1.3Z"/><path class="d" d="M114.37,265.34c-.63,0-1.28-.13-1.9-.4-2.07-.91-3.17-3.08-2.67-5.29l5.44-24.08-19.64-7.86c-1.28-.51-2.26-1.56-2.69-2.87-.43-1.31-.26-2.73,.47-3.91l19.53-31.5c1.18-1.9,3.46-2.68,5.55-1.92,2.09,.77,3.33,2.84,3,5.05l-3.25,22.01,21.15,7.93c1.35,.51,2.38,1.59,2.81,2.97,.43,1.38,.21,2.85-.61,4.04l-23.4,33.81c-.9,1.3-2.32,2.02-3.8,2.02Zm-15.89-42.33l19.4,7.76c2.14,.85,3.32,3.1,2.81,5.35l-4.7,20.82,20.55-29.69-20.81-7.8c-2.04-.76-3.29-2.88-2.97-5.04l2.79-18.93-17.07,27.53Z"/></g><path class="e" d="M115.22,190.86l-19.53,31.5c-.63,1.02-.19,2.37,.93,2.82l20.26,8.1c.88,.35,1.38,1.3,1.17,2.23l-5.59,24.73c-.47,2.08,2.27,3.28,3.48,1.53l23.4-33.81c.72-1.04,.27-2.47-.91-2.92l-21.74-8.15c-.85-.32-1.37-1.19-1.24-2.1l3.34-22.64c.31-2.08-2.46-3.09-3.56-1.3Z"/><path class="f" d="M373.48,253.35h-6.2c-15.45,0-27.29-13.75-24.99-29.03l12.4-82.46c1.86-12.37,12.49-21.51,24.99-21.51h0c14.7,0,26.3,12.5,25.2,27.17l-6.2,82.46c-.99,13.19-11.98,23.38-25.2,23.38Z"/><path class="f" d="M31.47,253.35h6.2c15.45,0,27.29-13.75,24.99-29.03l-12.4-82.46c-1.86-12.37-12.49-21.51-24.99-21.51h0c-14.7,0-26.3,12.5-25.2,27.17l6.2,82.46c.99,13.19,11.98,23.38,25.2,23.38Z"/></g></g></g></svg>