<?xml version="1.0" encoding="UTF-8"?>
<!-- This file is generated by npm run build:icons -->
<svg xmlns="http://www.w3.org/2000/svg" xmlns:xlink="http://www.w3.org/1999/xlink" width="0" height="0">
<defs>
<symbol viewBox="0 0 15 15" fill="none" id="activity-log">
  <path     fill-rule="evenodd"
    clip-rule="evenodd"
    d="M0 1.5C0 1.22386 0.223858 1 0.5 1H2.5C2.77614 1 3 1.22386 3 1.5C3 1.77614 2.77614 2 2.5 2H0.5C0.223858 2 0 1.77614 0 1.5ZM4 1.5C4 1.22386 4.22386 1 4.5 1H14.5C14.7761 1 15 1.22386 15 1.5C15 1.77614 14.7761 2 14.5 2H4.5C4.22386 2 4 1.77614 4 1.5ZM4 4.5C4 4.22386 4.22386 4 4.5 4H11.5C11.7761 4 12 4.22386 12 4.5C12 4.77614 11.7761 5 11.5 5H4.5C4.22386 5 4 4.77614 4 4.5ZM0 7.5C0 7.22386 0.223858 7 0.5 7H2.5C2.77614 7 3 7.22386 3 7.5C3 7.77614 2.77614 8 2.5 8H0.5C0.223858 8 0 7.77614 0 7.5ZM4 7.5C4 7.22386 4.22386 7 4.5 7H14.5C14.7761 7 15 7.22386 15 7.5C15 7.77614 14.7761 8 14.5 8H4.5C4.22386 8 4 7.77614 4 7.5ZM4 10.5C4 10.2239 4.22386 10 4.5 10H11.5C11.7761 10 12 10.2239 12 10.5C12 10.7761 11.7761 11 11.5 11H4.5C4.22386 11 4 10.7761 4 10.5ZM0 13.5C0 13.2239 0.223858 13 0.5 13H2.5C2.77614 13 3 13.2239 3 13.5C3 13.7761 2.77614 14 2.5 14H0.5C0.223858 14 0 13.7761 0 13.5ZM4 13.5C4 13.2239 4.22386 13 4.5 13H14.5C14.7761 13 15 13.2239 15 13.5C15 13.7761 14.7761 14 14.5 14H4.5C4.22386 14 4 13.7761 4 13.5Z"
    fill="currentColor"
  ></path>
</symbol>
<symbol viewBox="0 0 15 15" fill="none" id="arrow-down">
  <path     fill-rule="evenodd"
    clip-rule="evenodd"
    d="M7.5 2C7.77614 2 8 2.22386 8 2.5L8 11.2929L11.1464 8.14645C11.3417 7.95118 11.6583 7.95118 11.8536 8.14645C12.0488 8.34171 12.0488 8.65829 11.8536 8.85355L7.85355 12.8536C7.75979 12.9473 7.63261 13 7.5 13C7.36739 13 7.24021 12.9473 7.14645 12.8536L3.14645 8.85355C2.95118 8.65829 2.95118 8.34171 3.14645 8.14645C3.34171 7.95118 3.65829 7.95118 3.85355 8.14645L7 11.2929L7 2.5C7 2.22386 7.22386 2 7.5 2Z"
    fill="currentColor"
  ></path>
</symbol>
<symbol viewBox="0 0 15 15" fill="none" id="arrow-left">
  <path     fill-rule="evenodd"
    clip-rule="evenodd"
    d="M6.85355 3.14645C7.04882 3.34171 7.04882 3.65829 6.85355 3.85355L3.70711 7H12.5C12.7761 7 13 7.22386 13 7.5C13 7.77614 12.7761 8 12.5 8H3.70711L6.85355 11.1464C7.04882 11.3417 7.04882 11.6583 6.85355 11.8536C6.65829 12.0488 6.34171 12.0488 6.14645 11.8536L2.14645 7.85355C1.95118 7.65829 1.95118 7.34171 2.14645 7.14645L6.14645 3.14645C6.34171 2.95118 6.65829 2.95118 6.85355 3.14645Z"
    fill="currentColor"
  ></path>
</symbol>
<symbol viewBox="0 0 15 15" fill="none" id="arrow-right">
  <path     fill-rule="evenodd"
    clip-rule="evenodd"
    d="M8.14645 3.14645C8.34171 2.95118 8.65829 2.95118 8.85355 3.14645L12.8536 7.14645C13.0488 7.34171 13.0488 7.65829 12.8536 7.85355L8.85355 11.8536C8.65829 12.0488 8.34171 12.0488 8.14645 11.8536C7.95118 11.6583 7.95118 11.3417 8.14645 11.1464L11.2929 8H2.5C2.22386 8 2 7.77614 2 7.5C2 7.22386 2.22386 7 2.5 7H11.2929L8.14645 3.85355C7.95118 3.65829 7.95118 3.34171 8.14645 3.14645Z"
    fill="currentColor"
  ></path>
</symbol>
<symbol viewBox="0 0 24 24" fill="none" stroke="currentColor" stroke-width="2" stroke-linecap="round" stroke-linejoin="round" class="lucide lucide-arrow-up-down" id="arrow-up-down"><path d="m21 16-4 4-4-4"></path><path d="M17 20V4"></path><path d="m3 8 4-4 4 4"></path><path d="M7 4v16"></path></symbol>
<symbol viewBox="0 0 15 15" fill="none" id="arrow-up">
  <path     fill-rule="evenodd"
    clip-rule="evenodd"
    d="M7.14645 2.14645C7.34171 1.95118 7.65829 1.95118 7.85355 2.14645L11.8536 6.14645C12.0488 6.34171 12.0488 6.65829 11.8536 6.85355C11.6583 7.04882 11.3417 7.04882 11.1464 6.85355L8 3.70711L8 12.5C8 12.7761 7.77614 13 7.5 13C7.22386 13 7 12.7761 7 12.5L7 3.70711L3.85355 6.85355C3.65829 7.04882 3.34171 7.04882 3.14645 6.85355C2.95118 6.65829 2.95118 6.34171 3.14645 6.14645L7.14645 2.14645Z"
    fill="currentColor"
  ></path>
</symbol>
<symbol viewBox="0 0 15 15" fill="none" id="avatar">
  <path     fill-rule="evenodd"
    clip-rule="evenodd"
    d="M0.877014 7.49988C0.877014 3.84219 3.84216 0.877045 7.49985 0.877045C11.1575 0.877045 14.1227 3.84219 14.1227 7.49988C14.1227 11.1575 11.1575 14.1227 7.49985 14.1227C3.84216 14.1227 0.877014 11.1575 0.877014 7.49988ZM7.49985 1.82704C4.36683 1.82704 1.82701 4.36686 1.82701 7.49988C1.82701 8.97196 2.38774 10.3131 3.30727 11.3213C4.19074 9.94119 5.73818 9.02499 7.50023 9.02499C9.26206 9.02499 10.8093 9.94097 11.6929 11.3208C12.6121 10.3127 13.1727 8.97172 13.1727 7.49988C13.1727 4.36686 10.6328 1.82704 7.49985 1.82704ZM10.9818 11.9787C10.2839 10.7795 8.9857 9.97499 7.50023 9.97499C6.01458 9.97499 4.71624 10.7797 4.01845 11.9791C4.97952 12.7272 6.18765 13.1727 7.49985 13.1727C8.81227 13.1727 10.0206 12.727 10.9818 11.9787ZM5.14999 6.50487C5.14999 5.207 6.20212 4.15487 7.49999 4.15487C8.79786 4.15487 9.84999 5.207 9.84999 6.50487C9.84999 7.80274 8.79786 8.85487 7.49999 8.85487C6.20212 8.85487 5.14999 7.80274 5.14999 6.50487ZM7.49999 5.10487C6.72679 5.10487 6.09999 5.73167 6.09999 6.50487C6.09999 7.27807 6.72679 7.90487 7.49999 7.90487C8.27319 7.90487 8.89999 7.27807 8.89999 6.50487C8.89999 5.73167 8.27319 5.10487 7.49999 5.10487Z"
    fill="currentColor"
  ></path>
</symbol>
<symbol viewBox="0 0 15 15" fill="none" id="backpack">
  <path     fill-rule="evenodd"
    clip-rule="evenodd"
    d="M5 1C5 0.447715 5.44772 0 6 0H9C9.55228 0 10 0.447715 10 1V2H14C14.5523 2 15 2.44772 15 3V6C15 6.8888 14.6131 7.68734 14 8.23608V11.5C14 12.3284 13.3284 13 12.5 13H2.5C1.67157 13 1 12.3284 1 11.5V8.2359C0.38697 7.68721 0 6.88883 0 6V3C0 2.44772 0.447716 2 1 2H5V1ZM9 1V2H6V1H9ZM1 3H5H5.5H9.5H10H14V6C14 6.654 13.6866 7.23467 13.1997 7.6004C12.8655 7.85144 12.4508 8 12 8H8V7.5C8 7.22386 7.77614 7 7.5 7C7.22386 7 7 7.22386 7 7.5V8H3C2.5493 8 2.1346 7.85133 1.80029 7.60022C1.31335 7.23446 1 6.65396 1 6V3ZM7 9H3C2.64961 9 2.31292 8.93972 2 8.82905V11.5C2 11.7761 2.22386 12 2.5 12H12.5C12.7761 12 13 11.7761 13 11.5V8.82915C12.6871 8.93978 12.3504 9 12 9H8V9.5C8 9.77614 7.77614 10 7.5 10C7.22386 10 7 9.77614 7 9.5V9Z"
    fill="currentColor"
  ></path>
</symbol>
<symbol viewBox="0 0 15 15" fill="none" id="calendar">
  <path     fill-rule="evenodd"
    clip-rule="evenodd"
    d="M4.5 1C4.77614 1 5 1.22386 5 1.5V2H10V1.5C10 1.22386 10.2239 1 10.5 1C10.7761 1 11 1.22386 11 1.5V2H12.5C13.3284 2 14 2.67157 14 3.5V12.5C14 13.3284 13.3284 14 12.5 14H2.5C1.67157 14 1 13.3284 1 12.5V3.5C1 2.67157 1.67157 2 2.5 2H4V1.5C4 1.22386 4.22386 1 4.5 1ZM10 3V3.5C10 3.77614 10.2239 4 10.5 4C10.7761 4 11 3.77614 11 3.5V3H12.5C12.7761 3 13 3.22386 13 3.5V5H2V3.5C2 3.22386 2.22386 3 2.5 3H4V3.5C4 3.77614 4.22386 4 4.5 4C4.77614 4 5 3.77614 5 3.5V3H10ZM2 6V12.5C2 12.7761 2.22386 13 2.5 13H12.5C12.7761 13 13 12.7761 13 12.5V6H2ZM7 7.5C7 7.22386 7.22386 7 7.5 7C7.77614 7 8 7.22386 8 7.5C8 7.77614 7.77614 8 7.5 8C7.22386 8 7 7.77614 7 7.5ZM9.5 7C9.22386 7 9 7.22386 9 7.5C9 7.77614 9.22386 8 9.5 8C9.77614 8 10 7.77614 10 7.5C10 7.22386 9.77614 7 9.5 7ZM11 7.5C11 7.22386 11.2239 7 11.5 7C11.7761 7 12 7.22386 12 7.5C12 7.77614 11.7761 8 11.5 8C11.2239 8 11 7.77614 11 7.5ZM11.5 9C11.2239 9 11 9.22386 11 9.5C11 9.77614 11.2239 10 11.5 10C11.7761 10 12 9.77614 12 9.5C12 9.22386 11.7761 9 11.5 9ZM9 9.5C9 9.22386 9.22386 9 9.5 9C9.77614 9 10 9.22386 10 9.5C10 9.77614 9.77614 10 9.5 10C9.22386 10 9 9.77614 9 9.5ZM7.5 9C7.22386 9 7 9.22386 7 9.5C7 9.77614 7.22386 10 7.5 10C7.77614 10 8 9.77614 8 9.5C8 9.22386 7.77614 9 7.5 9ZM5 9.5C5 9.22386 5.22386 9 5.5 9C5.77614 9 6 9.22386 6 9.5C6 9.77614 5.77614 10 5.5 10C5.22386 10 5 9.77614 5 9.5ZM3.5 9C3.22386 9 3 9.22386 3 9.5C3 9.77614 3.22386 10 3.5 10C3.77614 10 4 9.77614 4 9.5C4 9.22386 3.77614 9 3.5 9ZM3 11.5C3 11.2239 3.22386 11 3.5 11C3.77614 11 4 11.2239 4 11.5C4 11.7761 3.77614 12 3.5 12C3.22386 12 3 11.7761 3 11.5ZM5.5 11C5.22386 11 5 11.2239 5 11.5C5 11.7761 5.22386 12 5.5 12C5.77614 12 6 11.7761 6 11.5C6 11.2239 5.77614 11 5.5 11ZM7 11.5C7 11.2239 7.22386 11 7.5 11C7.77614 11 8 11.2239 8 11.5C8 11.7761 7.77614 12 7.5 12C7.22386 12 7 11.7761 7 11.5ZM9.5 11C9.22386 11 9 11.2239 9 11.5C9 11.7761 9.22386 12 9.5 12C9.77614 12 10 11.7761 10 11.5C10 11.2239 9.77614 11 9.5 11Z"
    fill="currentColor"
  ></path>
</symbol>
<symbol viewBox="0 0 15 15" fill="none" id="camera">
  <path     fill-rule="evenodd"
    clip-rule="evenodd"
    d="M2 3C1.44772 3 1 3.44772 1 4V11C1 11.5523 1.44772 12 2 12H13C13.5523 12 14 11.5523 14 11V4C14 3.44772 13.5523 3 13 3H2ZM0 4C0 2.89543 0.895431 2 2 2H13C14.1046 2 15 2.89543 15 4V11C15 12.1046 14.1046 13 13 13H2C0.895431 13 0 12.1046 0 11V4ZM2 4.25C2 4.11193 2.11193 4 2.25 4H4.75C4.88807 4 5 4.11193 5 4.25V5.75454C5 5.89261 4.88807 6.00454 4.75 6.00454H2.25C2.11193 6.00454 2 5.89261 2 5.75454V4.25ZM12.101 7.58421C12.101 9.02073 10.9365 10.1853 9.49998 10.1853C8.06346 10.1853 6.89893 9.02073 6.89893 7.58421C6.89893 6.14769 8.06346 4.98315 9.49998 4.98315C10.9365 4.98315 12.101 6.14769 12.101 7.58421ZM13.101 7.58421C13.101 9.57302 11.4888 11.1853 9.49998 11.1853C7.51117 11.1853 5.89893 9.57302 5.89893 7.58421C5.89893 5.5954 7.51117 3.98315 9.49998 3.98315C11.4888 3.98315 13.101 5.5954 13.101 7.58421Z"
    fill="currentColor"
  ></path>
</symbol>
<symbol viewBox="0 0 15 15" fill="none" id="caret-down">
  <path     fill-rule="evenodd"
    clip-rule="evenodd"
    d="M4.18179 6.18181C4.35753 6.00608 4.64245 6.00608 4.81819 6.18181L7.49999 8.86362L10.1818 6.18181C10.3575 6.00608 10.6424 6.00608 10.8182 6.18181C10.9939 6.35755 10.9939 6.64247 10.8182 6.81821L7.81819 9.81821C7.73379 9.9026 7.61934 9.95001 7.49999 9.95001C7.38064 9.95001 7.26618 9.9026 7.18179 9.81821L4.18179 6.81821C4.00605 6.64247 4.00605 6.35755 4.18179 6.18181Z"
    fill="currentColor"
  ></path>
</symbol>
<symbol viewBox="0 0 15 15" fill="none" id="caret-left">
  <path     fill-rule="evenodd"
    clip-rule="evenodd"
    d="M8.81809 4.18179C8.99383 4.35753 8.99383 4.64245 8.81809 4.81819L6.13629 7.49999L8.81809 10.1818C8.99383 10.3575 8.99383 10.6424 8.81809 10.8182C8.64236 10.9939 8.35743 10.9939 8.1817 10.8182L5.1817 7.81819C5.09731 7.73379 5.0499 7.61933 5.0499 7.49999C5.0499 7.38064 5.09731 7.26618 5.1817 7.18179L8.1817 4.18179C8.35743 4.00605 8.64236 4.00605 8.81809 4.18179Z"
    fill="currentColor"
  ></path>
</symbol>
<symbol viewBox="0 0 15 15" fill="none" id="caret-right">
  <path     fill-rule="evenodd"
    clip-rule="evenodd"
    d="M6.18194 4.18185C6.35767 4.00611 6.6426 4.00611 6.81833 4.18185L9.81833 7.18185C9.90272 7.26624 9.95013 7.3807 9.95013 7.50005C9.95013 7.6194 9.90272 7.73386 9.81833 7.81825L6.81833 10.8182C6.6426 10.994 6.35767 10.994 6.18194 10.8182C6.0062 10.6425 6.0062 10.3576 6.18194 10.1819L8.86374 7.50005L6.18194 4.81825C6.0062 4.64251 6.0062 4.35759 6.18194 4.18185Z"
    fill="currentColor"
  ></path>
</symbol>
<symbol viewBox="0 0 15 15" fill="none" id="caret-sort">
  <path     fill-rule="evenodd"
    clip-rule="evenodd"
    d="M4.93179 5.43179C4.75605 5.60753 4.75605 5.89245 4.93179 6.06819C5.10753 6.24392 5.39245 6.24392 5.56819 6.06819L7.49999 4.13638L9.43179 6.06819C9.60753 6.24392 9.89245 6.24392 10.0682 6.06819C10.2439 5.89245 10.2439 5.60753 10.0682 5.43179L7.81819 3.18179C7.73379 3.0974 7.61933 3.04999 7.49999 3.04999C7.38064 3.04999 7.26618 3.0974 7.18179 3.18179L4.93179 5.43179ZM10.0682 9.56819C10.2439 9.39245 10.2439 9.10753 10.0682 8.93179C9.89245 8.75606 9.60753 8.75606 9.43179 8.93179L7.49999 10.8636L5.56819 8.93179C5.39245 8.75606 5.10753 8.75606 4.93179 8.93179C4.75605 9.10753 4.75605 9.39245 4.93179 9.56819L7.18179 11.8182C7.35753 11.9939 7.64245 11.9939 7.81819 11.8182L10.0682 9.56819Z"
    fill="currentColor"
  ></path>
</symbol>
<symbol viewBox="0 0 15 15" fill="none" id="caret-up">
  <path     fill-rule="evenodd"
    clip-rule="evenodd"
    d="M4.18179 8.81819C4.00605 8.64245 4.00605 8.35753 4.18179 8.18179L7.18179 5.18179C7.26618 5.0974 7.38064 5.04999 7.49999 5.04999C7.61933 5.04999 7.73379 5.0974 7.81819 5.18179L10.8182 8.18179C10.9939 8.35753 10.9939 8.64245 10.8182 8.81819C10.6424 8.99392 10.3575 8.99392 10.1818 8.81819L7.49999 6.13638L4.81819 8.81819C4.64245 8.99392 4.35753 8.99392 4.18179 8.81819Z"
    fill="currentColor"
  ></path>
</symbol>
<symbol viewBox="0 0 15 15" fill="none" id="check">
  <path     fill-rule="evenodd"
    clip-rule="evenodd"
    d="M11.4669 3.72684C11.7558 3.91574 11.8369 4.30308 11.648 4.59198L7.39799 11.092C7.29783 11.2452 7.13556 11.3467 6.95402 11.3699C6.77247 11.3931 6.58989 11.3355 6.45446 11.2124L3.70446 8.71241C3.44905 8.48022 3.43023 8.08494 3.66242 7.82953C3.89461 7.57412 4.28989 7.55529 4.5453 7.78749L6.75292 9.79441L10.6018 3.90792C10.7907 3.61902 11.178 3.53795 11.4669 3.72684Z"
    fill="currentColor"
  ></path>
</symbol>
<symbol viewBox="0 0 15 15" fill="none" id="chevron-down">
  <path     fill-rule="evenodd"
    clip-rule="evenodd"
    d="M3.13523 6.15803C3.3241 5.95657 3.64052 5.94637 3.84197 6.13523L7.5 9.56464L11.158 6.13523C11.3595 5.94637 11.6759 5.95657 11.8648 6.15803C12.0536 6.35949 12.0434 6.67591 11.842 6.86477L7.84197 10.6148C7.64964 10.7951 7.35036 10.7951 7.15803 10.6148L3.15803 6.86477C2.95657 6.67591 2.94637 6.35949 3.13523 6.15803Z"
    fill="currentColor"
  ></path>
</symbol>
<symbol viewBox="0 0 15 15" fill="none" id="chevron-left">
  <path     fill-rule="evenodd"
    clip-rule="evenodd"
    d="M8.84182 3.13514C9.04327 3.32401 9.05348 3.64042 8.86462 3.84188L5.43521 7.49991L8.86462 11.1579C9.05348 11.3594 9.04327 11.6758 8.84182 11.8647C8.64036 12.0535 8.32394 12.0433 8.13508 11.8419L4.38508 7.84188C4.20477 7.64955 4.20477 7.35027 4.38508 7.15794L8.13508 3.15794C8.32394 2.95648 8.64036 2.94628 8.84182 3.13514Z"
    fill="currentColor"
  ></path>
</symbol>
<symbol viewBox="0 0 15 15" fill="none" id="chevron-right">
  <path     fill-rule="evenodd"
    clip-rule="evenodd"
    d="M6.1584 3.13508C6.35985 2.94621 6.67627 2.95642 6.86514 3.15788L10.6151 7.15788C10.7954 7.3502 10.7954 7.64949 10.6151 7.84182L6.86514 11.8418C6.67627 12.0433 6.35985 12.0535 6.1584 11.8646C5.95694 11.6757 5.94673 11.3593 6.1356 11.1579L9.565 7.49985L6.1356 3.84182C5.94673 3.64036 5.95694 3.32394 6.1584 3.13508Z"
    fill="currentColor"
  ></path>
</symbol>
<symbol viewBox="0 0 15 15" fill="none" id="chevron-up">
  <path     fill-rule="evenodd"
    clip-rule="evenodd"
    d="M3.13523 8.84197C3.3241 9.04343 3.64052 9.05363 3.84197 8.86477L7.5 5.43536L11.158 8.86477C11.3595 9.05363 11.6759 9.04343 11.8648 8.84197C12.0536 8.64051 12.0434 8.32409 11.842 8.13523L7.84197 4.38523C7.64964 4.20492 7.35036 4.20492 7.15803 4.38523L3.15803 8.13523C2.95657 8.32409 2.94637 8.64051 3.13523 8.84197Z"
    fill="currentColor"
  ></path>
</symbol>
<symbol viewBox="0 0 15 15" fill="none" id="clock">
  <path     fill-rule="evenodd"
    clip-rule="evenodd"
    d="M7.50009 0.877014C3.84241 0.877014 0.877258 3.84216 0.877258 7.49984C0.877258 11.1575 3.8424 14.1227 7.50009 14.1227C11.1578 14.1227 14.1229 11.1575 14.1229 7.49984C14.1229 3.84216 11.1577 0.877014 7.50009 0.877014ZM1.82726 7.49984C1.82726 4.36683 4.36708 1.82701 7.50009 1.82701C10.6331 1.82701 13.1729 4.36683 13.1729 7.49984C13.1729 10.6328 10.6331 13.1727 7.50009 13.1727C4.36708 13.1727 1.82726 10.6328 1.82726 7.49984ZM8 4.50001C8 4.22387 7.77614 4.00001 7.5 4.00001C7.22386 4.00001 7 4.22387 7 4.50001V7.50001C7 7.63262 7.05268 7.7598 7.14645 7.85357L9.14645 9.85357C9.34171 10.0488 9.65829 10.0488 9.85355 9.85357C10.0488 9.65831 10.0488 9.34172 9.85355 9.14646L8 7.29291V4.50001Z"
    fill="currentColor"
  ></path>
</symbol>
<symbol viewBox="0 0 15 15" fill="none" id="cross-1">
  <path     fill-rule="evenodd"
    clip-rule="evenodd"
    d="M12.8536 2.85355C13.0488 2.65829 13.0488 2.34171 12.8536 2.14645C12.6583 1.95118 12.3417 1.95118 12.1464 2.14645L7.5 6.79289L2.85355 2.14645C2.65829 1.95118 2.34171 1.95118 2.14645 2.14645C1.95118 2.34171 1.95118 2.65829 2.14645 2.85355L6.79289 7.5L2.14645 12.1464C1.95118 12.3417 1.95118 12.6583 2.14645 12.8536C2.34171 13.0488 2.65829 13.0488 2.85355 12.8536L7.5 8.20711L12.1464 12.8536C12.3417 13.0488 12.6583 13.0488 12.8536 12.8536C13.0488 12.6583 13.0488 12.3417 12.8536 12.1464L8.20711 7.5L12.8536 2.85355Z"
    fill="currentColor"
  ></path>
</symbol>
<symbol viewBox="0 0 15 15" fill="none" id="cross-2">
  <path     fill-rule="evenodd"
    clip-rule="evenodd"
    d="M11.7816 4.03157C12.0062 3.80702 12.0062 3.44295 11.7816 3.2184C11.5571 2.99385 11.193 2.99385 10.9685 3.2184L7.50005 6.68682L4.03164 3.2184C3.80708 2.99385 3.44301 2.99385 3.21846 3.2184C2.99391 3.44295 2.99391 3.80702 3.21846 4.03157L6.68688 7.49999L3.21846 10.9684C2.99391 11.193 2.99391 11.557 3.21846 11.7816C3.44301 12.0061 3.80708 12.0061 4.03164 11.7816L7.50005 8.31316L10.9685 11.7816C11.193 12.0061 11.5571 12.0061 11.7816 11.7816C12.0062 11.557 12.0062 11.193 11.7816 10.9684L8.31322 7.49999L11.7816 4.03157Z"
    fill="currentColor"
  ></path>
</symbol>
<symbol viewBox="0 0 15 15" fill="none" id="dots-horizontal">
  <path     fill-rule="evenodd"
    clip-rule="evenodd"
    d="M3.625 7.5C3.625 8.12132 3.12132 8.625 2.5 8.625C1.87868 8.625 1.375 8.12132 1.375 7.5C1.375 6.87868 1.87868 6.375 2.5 6.375C3.12132 6.375 3.625 6.87868 3.625 7.5ZM8.625 7.5C8.625 8.12132 8.12132 8.625 7.5 8.625C6.87868 8.625 6.375 8.12132 6.375 7.5C6.375 6.87868 6.87868 6.375 7.5 6.375C8.12132 6.375 8.625 6.87868 8.625 7.5ZM12.5 8.625C13.1213 8.625 13.625 8.12132 13.625 7.5C13.625 6.87868 13.1213 6.375 12.5 6.375C11.8787 6.375 11.375 6.87868 11.375 7.5C11.375 8.12132 11.8787 8.625 12.5 8.625Z"
    fill="currentColor"
  ></path>
</symbol>
<symbol viewBox="0 0 15 15" fill="none" id="double-arrow-left">
  <path     fill-rule="evenodd"
    clip-rule="evenodd"
    d="M6.85355 3.85355C7.04882 3.65829 7.04882 3.34171 6.85355 3.14645C6.65829 2.95118 6.34171 2.95118 6.14645 3.14645L2.14645 7.14645C1.95118 7.34171 1.95118 7.65829 2.14645 7.85355L6.14645 11.8536C6.34171 12.0488 6.65829 12.0488 6.85355 11.8536C7.04882 11.6583 7.04882 11.3417 6.85355 11.1464L3.20711 7.5L6.85355 3.85355ZM12.8536 3.85355C13.0488 3.65829 13.0488 3.34171 12.8536 3.14645C12.6583 2.95118 12.3417 2.95118 12.1464 3.14645L8.14645 7.14645C7.95118 7.34171 7.95118 7.65829 8.14645 7.85355L12.1464 11.8536C12.3417 12.0488 12.6583 12.0488 12.8536 11.8536C13.0488 11.6583 13.0488 11.3417 12.8536 11.1464L9.20711 7.5L12.8536 3.85355Z"
    fill="currentColor"
  ></path>
</symbol>
<symbol viewBox="0 0 15 15" fill="none" id="double-arrow-right">
  <path     fill-rule="evenodd"
    clip-rule="evenodd"
    d="M2.14645 11.1464C1.95118 11.3417 1.95118 11.6583 2.14645 11.8536C2.34171 12.0488 2.65829 12.0488 2.85355 11.8536L6.85355 7.85355C7.04882 7.65829 7.04882 7.34171 6.85355 7.14645L2.85355 3.14645C2.65829 2.95118 2.34171 2.95118 2.14645 3.14645C1.95118 3.34171 1.95118 3.65829 2.14645 3.85355L5.79289 7.5L2.14645 11.1464ZM8.14645 11.1464C7.95118 11.3417 7.95118 11.6583 8.14645 11.8536C8.34171 12.0488 8.65829 12.0488 8.85355 11.8536L12.8536 7.85355C13.0488 7.65829 13.0488 7.34171 12.8536 7.14645L8.85355 3.14645C8.65829 2.95118 8.34171 2.95118 8.14645 3.14645C7.95118 3.34171 7.95118 3.65829 8.14645 3.85355L11.7929 7.5L8.14645 11.1464Z"
    fill="currentColor"
  ></path>
</symbol>
<symbol viewBox="0 0 15 15" fill="none" id="download">
  <path     fill-rule="evenodd"
    clip-rule="evenodd"
    d="M7.50005 1.04999C7.74858 1.04999 7.95005 1.25146 7.95005 1.49999V8.41359L10.1819 6.18179C10.3576 6.00605 10.6425 6.00605 10.8182 6.18179C10.994 6.35753 10.994 6.64245 10.8182 6.81819L7.81825 9.81819C7.64251 9.99392 7.35759 9.99392 7.18185 9.81819L4.18185 6.81819C4.00611 6.64245 4.00611 6.35753 4.18185 6.18179C4.35759 6.00605 4.64251 6.00605 4.81825 6.18179L7.05005 8.41359V1.49999C7.05005 1.25146 7.25152 1.04999 7.50005 1.04999ZM2.5 10C2.77614 10 3 10.2239 3 10.5V12C3 12.5539 3.44565 13 3.99635 13H11.0012C11.5529 13 12 12.5528 12 12V10.5C12 10.2239 12.2239 10 12.5 10C12.7761 10 13 10.2239 13 10.5V12C13 13.1041 12.1062 14 11.0012 14H3.99635C2.89019 14 2 13.103 2 12V10.5C2 10.2239 2.22386 10 2.5 10Z"
    fill="currentColor"
  ></path>
</symbol>
<symbol viewBox="0 0 15 15" fill="none" id="envelope-closed">
  <path     fill-rule="evenodd"
    clip-rule="evenodd"
    d="M1 2C0.447715 2 0 2.44772 0 3V12C0 12.5523 0.447715 13 1 13H14C14.5523 13 15 12.5523 15 12V3C15 2.44772 14.5523 2 14 2H1ZM1 3L14 3V3.92494C13.9174 3.92486 13.8338 3.94751 13.7589 3.99505L7.5 7.96703L1.24112 3.99505C1.16621 3.94751 1.0826 3.92486 1 3.92494V3ZM1 4.90797V12H14V4.90797L7.74112 8.87995C7.59394 8.97335 7.40606 8.97335 7.25888 8.87995L1 4.90797Z"
    fill="currentColor"
  ></path>
</symbol>
<symbol viewBox="0 0 15 15" fill="none" id="exit">
  <path     fill-rule="evenodd"
    clip-rule="evenodd"
    d="M3 1C2.44771 1 2 1.44772 2 2V13C2 13.5523 2.44772 14 3 14H10.5C10.7761 14 11 13.7761 11 13.5C11 13.2239 10.7761 13 10.5 13H3V2L10.5 2C10.7761 2 11 1.77614 11 1.5C11 1.22386 10.7761 1 10.5 1H3ZM12.6036 4.89645C12.4083 4.70118 12.0917 4.70118 11.8964 4.89645C11.7012 5.09171 11.7012 5.40829 11.8964 5.60355L13.2929 7H6.5C6.22386 7 6 7.22386 6 7.5C6 7.77614 6.22386 8 6.5 8H13.2929L11.8964 9.39645C11.7012 9.59171 11.7012 9.90829 11.8964 10.1036C12.0917 10.2988 12.4083 10.2988 12.6036 10.1036L14.8536 7.85355C15.0488 7.65829 15.0488 7.34171 14.8536 7.14645L12.6036 4.89645Z"
    fill="currentColor"
  ></path>
</symbol>
<symbol viewBox="0 0 15 15" fill="none" id="eye-none">
  <path     fill-rule="evenodd"
    clip-rule="evenodd"
    d="M13.3536 2.35355C13.5488 2.15829 13.5488 1.84171 13.3536 1.64645C13.1583 1.45118 12.8417 1.45118 12.6464 1.64645L10.6828 3.61012C9.70652 3.21671 8.63759 3 7.5 3C4.30786 3 1.65639 4.70638 0.0760002 7.23501C-0.0253338 7.39715 -0.0253334 7.60288 0.0760014 7.76501C0.902945 9.08812 2.02314 10.1861 3.36061 10.9323L1.64645 12.6464C1.45118 12.8417 1.45118 13.1583 1.64645 13.3536C1.84171 13.5488 2.15829 13.5488 2.35355 13.3536L4.31723 11.3899C5.29348 11.7833 6.36241 12 7.5 12C10.6921 12 13.3436 10.2936 14.924 7.76501C15.0253 7.60288 15.0253 7.39715 14.924 7.23501C14.0971 5.9119 12.9769 4.81391 11.6394 4.06771L13.3536 2.35355ZM9.90428 4.38861C9.15332 4.1361 8.34759 4 7.5 4C4.80285 4 2.52952 5.37816 1.09622 7.50001C1.87284 8.6497 2.89609 9.58106 4.09974 10.1931L9.90428 4.38861ZM5.09572 10.6114L10.9003 4.80685C12.1039 5.41894 13.1272 6.35031 13.9038 7.50001C12.4705 9.62183 10.1971 11 7.5 11C6.65241 11 5.84668 10.8639 5.09572 10.6114Z"
    fill="currentColor"
  ></path>
</symbol>
<symbol viewBox="0 0 15 15" fill="none" id="file-text">
  <path     fill-rule="evenodd"
    clip-rule="evenodd"
    d="M3 2.5C3 2.22386 3.22386 2 3.5 2H9.08579C9.21839 2 9.34557 2.05268 9.43934 2.14645L11.8536 4.56066C11.9473 4.65443 12 4.78161 12 4.91421V12.5C12 12.7761 11.7761 13 11.5 13H3.5C3.22386 13 3 12.7761 3 12.5V2.5ZM3.5 1C2.67157 1 2 1.67157 2 2.5V12.5C2 13.3284 2.67157 14 3.5 14H11.5C12.3284 14 13 13.3284 13 12.5V4.91421C13 4.51639 12.842 4.13486 12.5607 3.85355L10.1464 1.43934C9.86514 1.15804 9.48361 1 9.08579 1H3.5ZM4.5 4C4.22386 4 4 4.22386 4 4.5C4 4.77614 4.22386 5 4.5 5H7.5C7.77614 5 8 4.77614 8 4.5C8 4.22386 7.77614 4 7.5 4H4.5ZM4.5 7C4.22386 7 4 7.22386 4 7.5C4 7.77614 4.22386 8 4.5 8H10.5C10.7761 8 11 7.77614 11 7.5C11 7.22386 10.7761 7 10.5 7H4.5ZM4.5 10C4.22386 10 4 10.2239 4 10.5C4 10.7761 4.22386 11 4.5 11H10.5C10.7761 11 11 10.7761 11 10.5C11 10.2239 10.7761 10 10.5 10H4.5Z"
    fill="currentColor"
  ></path>
</symbol>
<symbol viewBox="0 0 15 15" fill="none" id="github-logo">
  <path     fill-rule="evenodd"
    clip-rule="evenodd"
    d="M7.49933 0.25C3.49635 0.25 0.25 3.49593 0.25 7.50024C0.25 10.703 2.32715 13.4206 5.2081 14.3797C5.57084 14.446 5.70302 14.2222 5.70302 14.0299C5.70302 13.8576 5.69679 13.4019 5.69323 12.797C3.67661 13.235 3.25112 11.825 3.25112 11.825C2.92132 10.9874 2.44599 10.7644 2.44599 10.7644C1.78773 10.3149 2.49584 10.3238 2.49584 10.3238C3.22353 10.375 3.60629 11.0711 3.60629 11.0711C4.25298 12.1788 5.30335 11.8588 5.71638 11.6732C5.78225 11.205 5.96962 10.8854 6.17658 10.7043C4.56675 10.5209 2.87415 9.89918 2.87415 7.12104C2.87415 6.32925 3.15677 5.68257 3.62053 5.17563C3.54576 4.99226 3.29697 4.25521 3.69174 3.25691C3.69174 3.25691 4.30015 3.06196 5.68522 3.99973C6.26337 3.83906 6.8838 3.75895 7.50022 3.75583C8.1162 3.75895 8.73619 3.83906 9.31523 3.99973C10.6994 3.06196 11.3069 3.25691 11.3069 3.25691C11.7026 4.25521 11.4538 4.99226 11.3795 5.17563C11.8441 5.68257 12.1245 6.32925 12.1245 7.12104C12.1245 9.9063 10.4292 10.5192 8.81452 10.6985C9.07444 10.9224 9.30633 11.3648 9.30633 12.0413C9.30633 13.0102 9.29742 13.7922 9.29742 14.0299C9.29742 14.2239 9.42828 14.4496 9.79591 14.3788C12.6746 13.4179 14.75 10.7025 14.75 7.50024C14.75 3.49593 11.5036 0.25 7.49933 0.25Z"
    fill="currentColor"
  ></path>
</symbol>
<symbol viewBox="0 0 15 15" fill="none" id="laptop">
  <path     fill-rule="evenodd"
    clip-rule="evenodd"
    d="M2 4.25C2 4.11193 2.11193 4 2.25 4H12.75C12.8881 4 13 4.11193 13 4.25V11.5H2V4.25ZM2.25 3C1.55964 3 1 3.55964 1 4.25V12H0V12.5C0 12.7761 0.223858 13 0.5 13H14.5C14.7761 13 15 12.7761 15 12.5V12H14V4.25C14 3.55964 13.4404 3 12.75 3H2.25Z"
    fill="currentColor"
  ></path>
</symbol>
<symbol viewBox="0 0 15 15" fill="none" id="link-2">
  <path     fill-rule="evenodd"
    clip-rule="evenodd"
    d="M8.51194 3.00541C9.18829 2.54594 10.0435 2.53694 10.6788 2.95419C10.8231 3.04893 10.9771 3.1993 11.389 3.61119C11.8009 4.02307 11.9513 4.17714 12.046 4.32141C12.4633 4.95675 12.4543 5.81192 11.9948 6.48827C11.8899 6.64264 11.7276 6.80811 11.3006 7.23511L10.6819 7.85383C10.4867 8.04909 10.4867 8.36567 10.6819 8.56093C10.8772 8.7562 11.1938 8.7562 11.389 8.56093L12.0077 7.94221L12.0507 7.89929C12.4203 7.52976 12.6568 7.2933 12.822 7.0502C13.4972 6.05623 13.5321 4.76252 12.8819 3.77248C12.7233 3.53102 12.4922 3.30001 12.1408 2.94871L12.0961 2.90408L12.0515 2.85942C11.7002 2.508 11.4692 2.27689 11.2277 2.11832C10.2377 1.46813 8.94398 1.50299 7.95001 2.17822C7.70691 2.34336 7.47044 2.57991 7.1009 2.94955L7.058 2.99247L6.43928 3.61119C6.24401 3.80645 6.24401 4.12303 6.43928 4.31829C6.63454 4.51355 6.95112 4.51355 7.14638 4.31829L7.7651 3.69957C8.1921 3.27257 8.35757 3.11027 8.51194 3.00541ZM4.31796 7.14672C4.51322 6.95146 4.51322 6.63487 4.31796 6.43961C4.12269 6.24435 3.80611 6.24435 3.61085 6.43961L2.99213 7.05833L2.94922 7.10124C2.57957 7.47077 2.34303 7.70724 2.17788 7.95035C1.50265 8.94432 1.4678 10.238 2.11799 11.2281C2.27656 11.4695 2.50766 11.7005 2.8591 12.0518L2.90374 12.0965L2.94837 12.1411C3.29967 12.4925 3.53068 12.7237 3.77214 12.8822C4.76219 13.5324 6.05589 13.4976 7.04986 12.8223C7.29296 12.6572 7.52943 12.4206 7.89896 12.051L7.89897 12.051L7.94188 12.0081L8.5606 11.3894C8.75586 11.1941 8.75586 10.8775 8.5606 10.6823C8.36533 10.487 8.04875 10.487 7.85349 10.6823L7.23477 11.301C6.80777 11.728 6.6423 11.8903 6.48794 11.9951C5.81158 12.4546 4.95642 12.4636 4.32107 12.0464C4.17681 11.9516 4.02274 11.8012 3.61085 11.3894C3.19896 10.9775 3.0486 10.8234 2.95385 10.6791C2.53661 10.0438 2.54561 9.18863 3.00507 8.51227C3.10993 8.35791 3.27224 8.19244 3.69924 7.76544L4.31796 7.14672ZM9.62172 6.08558C9.81698 5.89032 9.81698 5.57373 9.62172 5.37847C9.42646 5.18321 9.10988 5.18321 8.91461 5.37847L5.37908 8.91401C5.18382 9.10927 5.18382 9.42585 5.37908 9.62111C5.57434 9.81637 5.89092 9.81637 6.08619 9.62111L9.62172 6.08558Z"
    fill="currentColor"
  ></path>
</symbol>
<symbol viewBox="0 0 15 15" fill="none" id="lock-closed">
  <path     fill-rule="evenodd"
    clip-rule="evenodd"
    d="M5 4.63601C5 3.76031 5.24219 3.1054 5.64323 2.67357C6.03934 2.24705 6.64582 1.9783 7.5014 1.9783C8.35745 1.9783 8.96306 2.24652 9.35823 2.67208C9.75838 3.10299 10 3.75708 10 4.63325V5.99999H5V4.63601ZM4 5.99999V4.63601C4 3.58148 4.29339 2.65754 4.91049 1.99307C5.53252 1.32329 6.42675 0.978302 7.5014 0.978302C8.57583 0.978302 9.46952 1.32233 10.091 1.99162C10.7076 2.65557 11 3.57896 11 4.63325V5.99999H12C12.5523 5.99999 13 6.44771 13 6.99999V13C13 13.5523 12.5523 14 12 14H3C2.44772 14 2 13.5523 2 13V6.99999C2 6.44771 2.44772 5.99999 3 5.99999H4ZM3 6.99999H12V13H3V6.99999Z"
    fill="currentColor"
  ></path>
</symbol>
<symbol viewBox="0 0 15 15" fill="none" id="lock-open-1">
  <path     fill-rule="evenodd"
    clip-rule="evenodd"
    d="M7.4986 0C6.3257 0 5.36107 0.38943 4.73753 1.19361C4.23745 1.83856 4 2.68242 4 3.63325H5C5 2.84313 5.19691 2.23312 5.5278 1.80636C5.91615 1.30552 6.55152 1 7.4986 1C8.35683 1 8.96336 1.26502 9.35846 1.68623C9.75793 2.11211 10 2.76044 10 3.63601V6H3C2.44772 6 2 6.44772 2 7V13C2 13.5523 2.44772 14 3 14H12C12.5523 14 13 13.5523 13 13V7C13 6.44771 12.5523 6 12 6H11V3.63601C11 2.58135 10.7065 1.66167 10.0878 1.0021C9.46477 0.337871 8.57061 0 7.4986 0ZM3 7H12V13H3V7Z"
    fill="currentColor"
  ></path>
</symbol>
<symbol viewBox="0 0 2318.92 387.24" id="logo-big-black"><defs><style>.d{fill:#fff;}.e{fill:#f43838;}.f{fill:#1b1b21;}</style></defs><g id="a"></g><g id="b"><g id="c"><g><g><path class="f" d="M658.73,283.29c-4.55,5.72-10.17,10.71-16.86,14.97-6.68,4.26-13.85,7.8-21.51,10.61-7.65,2.81-15.5,4.92-23.54,6.32-8.04,1.4-15.69,2.11-22.96,2.11-14.05,0-26.98-2.52-38.8-7.56-11.82-5.04-22.01-11.99-30.59-20.85-8.57-8.86-15.28-19.3-20.13-31.31-4.84-12.01-7.27-24.94-7.27-38.8,0-10.56,1.21-20.9,3.63-31.02,2.42-10.12,5.88-19.66,10.39-28.63,4.5-8.96,10-17.19,16.49-24.7,6.49-7.51,13.85-13.97,22.09-19.4,8.23-5.42,17.24-9.64,27.03-12.64,9.78-3,20.24-4.5,31.39-4.5,4.16,0,8.62,.17,13.37,.51,4.75,.34,9.47,.92,14.17,1.74,4.7,.82,9.27,1.96,13.73,3.41,4.45,1.45,8.52,3.25,12.21,5.38l-4.07,55.51c-5.43-2.03-11.02-3.41-16.78-4.14-5.77-.73-11.41-1.09-16.93-1.09-7.75,0-14.99,1.19-21.72,3.56-6.73,2.37-12.59,5.79-17.58,10.24-4.99,4.46-8.94,9.88-11.84,16.27s-4.36,13.61-4.36,21.65c0,5.04,.68,9.91,2.03,14.6,1.35,4.7,3.41,8.86,6.18,12.5s6.2,6.56,10.32,8.79c4.12,2.23,8.89,3.34,14.31,3.34,3.68,0,7.48-.48,11.41-1.45,3.92-.97,7.29-2.62,10.1-4.94l.58-11.33-34.87-.58,1.74-43.59c14.43-.48,28.87-.89,43.3-1.24,14.43-.34,28.96-.8,43.59-1.38l1.74,97.65Z"></path><path class="f" d="M816.44,103.4c-.58,9.11-1.12,18.12-1.6,27.03-.49,8.91-1.12,17.92-1.89,27.03l-61.61,3.2-1.45,18.31h43.3l-3.2,45.05-43.59,1.45-1.45,21.21h61.61c-.58,10.66-1.19,21.24-1.82,31.75-.63,10.51-1.19,21.05-1.67,31.6l-125.25,2.91,4.65-209.53h133.97Z"></path><path class="f" d="M958.99,103.4c-.58,9.11-1.12,18.12-1.6,27.03-.49,8.91-1.12,17.92-1.89,27.03l-61.61,3.2-1.45,18.31h43.3l-3.2,45.05-43.59,1.45-1.45,21.21h61.61c-.58,10.66-1.19,21.24-1.82,31.75-.63,10.51-1.19,21.05-1.67,31.6l-125.25,2.91,4.65-209.53h133.97Z"></path><path class="f" d="M1148.18,104.85l-70.04,96.77,58.99,102.88-67.42,11.92-44.17-62.77-2.32,65.68-60.45,2.32,4.65-222.61,67.71,3.78-5.23,65.68,45.05-69.46,73.23,5.81Z"></path><path class="f" d="M1290.73,108.63l-8.14,61.32c-2.81-.77-5.62-1.31-8.43-1.6-2.81-.29-5.62-.44-8.43-.44-7.17,0-14,.94-20.49,2.83-6.49,1.89-12.23,4.77-17.22,8.65-4.99,3.88-8.96,8.72-11.92,14.53-2.96,5.81-4.43,12.64-4.43,20.49,0,5.04,.8,9.4,2.4,13.08,1.6,3.68,3.85,6.73,6.76,9.15,2.91,2.42,6.34,4.21,10.32,5.38,3.97,1.16,8.33,1.74,13.08,1.74,3.58,0,7.31-.39,11.19-1.16,3.87-.77,7.7-1.79,11.48-3.05,3.78-1.26,7.46-2.71,11.04-4.36,3.58-1.65,6.88-3.34,9.88-5.09l-5.81,68.29c-3.78,1.94-7.87,3.66-12.28,5.16-4.41,1.5-8.94,2.81-13.59,3.92-4.65,1.12-9.3,1.96-13.95,2.54s-9.11,.87-13.37,.87c-12.3,0-23.78-2.28-34.44-6.83-10.66-4.55-19.91-10.8-27.75-18.74-7.85-7.94-14.02-17.31-18.53-28.12-4.5-10.8-6.76-22.45-6.76-34.95,0-16.57,2.37-32.19,7.12-46.86,4.75-14.68,11.72-27.54,20.92-38.58,9.2-11.04,20.61-19.76,34.22-26.16,13.61-6.39,29.28-9.59,47.01-9.59,6.68,0,13.54,.53,20.56,1.6,7.02,1.07,13.54,3.05,19.54,5.96Z"></path><path class="f" d="M1472.8,171.7c-4.5-11.48-10.85-21.26-19.04-29.35-8.19-8.09-18.07-14.31-29.64-18.67-11.58-4.36-24.39-6.54-38.43-6.54-8.72,0-17,1.21-24.85,3.63-7.85,2.42-15.14,5.81-21.87,10.17-6.73,4.36-12.81,9.54-18.24,15.55-5.43,6.01-10.05,12.59-13.88,19.76-3.83,7.17-6.76,14.8-8.79,22.89-2.03,8.09-3.05,16.35-3.05,24.77s1.09,16.91,3.27,24.85c2.18,7.94,5.23,15.38,9.15,22.3,3.92,6.93,8.67,13.22,14.24,18.89,5.57,5.67,11.79,10.51,18.67,14.53,6.88,4.02,14.26,7.15,22.16,9.37,7.89,2.23,16.2,3.34,24.92,3.34s17.53-1.19,25.57-3.56c8.04-2.37,15.48-5.69,22.3-9.95,6.83-4.26,12.98-9.37,18.45-15.33,5.47-5.96,10.12-12.52,13.95-19.69,3.83-7.17,6.76-14.84,8.79-23.03,2.03-8.18,3.05-16.68,3.05-25.5,0-14.14-2.25-26.95-6.76-38.43Z"></path><path class="f" d="M1687.27,104.56l-10.46,197.04-76.14,6.97-40.69-105.49-6.39,107.53h-65.39l5.23-206.05,72.65-3.49,50.28,104.62,2.32-98.81,68.59-2.32Z"></path><path class="f" d="M1847.83,235.63c0,13.27-2.3,24.87-6.9,34.8-4.6,9.93-10.9,18.19-18.89,24.77-7.99,6.59-17.34,11.53-28.04,14.82-10.71,3.29-22.21,4.94-34.51,4.94-4.75,0-9.95-.63-15.62-1.89s-11.41-2.83-17.22-4.72-11.41-3.92-16.78-6.1c-5.38-2.18-10.15-4.24-14.31-6.18l6.39-59.87c8.23,4.94,17.36,8.7,27.39,11.26,10.03,2.57,19.88,3.85,29.57,3.85,1.84,0,4.07-.07,6.68-.22s5.11-.58,7.48-1.31c2.37-.73,4.38-1.82,6.03-3.27,1.65-1.45,2.47-3.53,2.47-6.25,0-1.84-.58-3.41-1.74-4.72s-2.67-2.37-4.5-3.2c-1.84-.82-3.92-1.45-6.25-1.89s-4.6-.75-6.83-.94c-2.23-.19-4.31-.29-6.25-.29h-4.65c-8.33,0-15.91-1.45-22.74-4.36-6.83-2.91-12.69-6.95-17.58-12.13-4.89-5.18-8.7-11.33-11.41-18.45-2.71-7.12-4.07-14.84-4.07-23.18,0-11.43,2.3-21.67,6.9-30.73,4.6-9.06,10.75-16.76,18.45-23.1,7.7-6.34,16.54-11.21,26.52-14.6,9.98-3.39,20.29-5.09,30.95-5.09,4.75,0,9.64,.17,14.68,.51,5.04,.34,10.05,.94,15.04,1.82,4.99,.87,9.86,1.99,14.6,3.34,4.75,1.36,9.25,3.05,13.51,5.09l-5.52,58.99c-6.59-2.23-13.49-4.09-20.71-5.59-7.22-1.5-14.27-2.25-21.14-2.25-1.26,0-2.88,.03-4.87,.07-1.99,.05-4.07,.19-6.25,.44-2.18,.24-4.38,.61-6.61,1.09-2.23,.49-4.21,1.14-5.96,1.96-1.74,.82-3.15,1.91-4.21,3.27-1.07,1.36-1.55,2.96-1.45,4.8,.1,2.13,.89,3.85,2.4,5.16,1.5,1.31,3.44,2.32,5.81,3.05,2.37,.73,4.99,1.24,7.85,1.53,2.86,.29,5.69,.46,8.5,.51,2.81,.05,5.42,.05,7.85,0,2.42-.05,4.41,.03,5.96,.22,7.75,.49,14.72,2.13,20.92,4.94,6.2,2.81,11.45,6.54,15.77,11.19,4.31,4.65,7.6,10.2,9.88,16.64,2.28,6.44,3.41,13.54,3.41,21.29Z"></path><path class="f" d="M2036.59,210.35c0,8.82-1.02,17.32-3.05,25.5-2.03,8.19-4.97,15.86-8.79,23.03-3.83,7.17-8.48,13.73-13.95,19.69-5.47,5.96-11.62,11.07-18.45,15.33-6.83,4.26-14.27,7.58-22.3,9.95-8.04,2.37-16.57,3.56-25.57,3.56s-17.03-1.11-24.92-3.34c-7.9-2.23-15.28-5.35-22.16-9.37-6.88-4.02-13.1-8.86-18.67-14.53-5.57-5.67-10.32-11.96-14.24-18.89-3.92-6.93-6.97-14.36-9.15-22.3-2.18-7.94-3.27-16.22-3.27-24.85s1.02-16.68,3.05-24.77c2.03-8.09,4.96-15.72,8.79-22.89,3.83-7.17,8.45-13.75,13.88-19.76,5.42-6,11.5-11.19,18.24-15.55,6.73-4.36,14.02-7.75,21.87-10.17,7.85-2.42,16.13-3.63,24.85-3.63,14.05,0,26.86,2.18,38.43,6.54,11.57,4.36,21.46,10.58,29.64,18.67,8.18,8.09,14.53,17.87,19.04,29.35s6.76,24.29,6.76,38.43Zm-64.52,3.78c0-4.16-.61-8.21-1.82-12.13-1.21-3.92-2.98-7.41-5.3-10.46s-5.21-5.52-8.65-7.41c-3.44-1.89-7.39-2.83-11.84-2.83s-8.62,.82-12.21,2.47c-3.59,1.65-6.66,3.9-9.23,6.76-2.57,2.86-4.53,6.2-5.88,10.03-1.36,3.83-2.03,7.87-2.03,12.13s.58,8.14,1.74,12.21,2.91,7.75,5.23,11.04c2.32,3.29,5.21,5.96,8.65,7.99,3.44,2.03,7.43,3.05,11.99,3.05s8.65-.89,12.28-2.69c3.63-1.79,6.71-4.21,9.23-7.27,2.52-3.05,4.45-6.56,5.81-10.53,1.35-3.97,2.03-8.09,2.03-12.35Z"></path><path class="f" d="M2174.49,230.11l-6.1,64.52-122.35,9.59c.58-33.81,1.24-67.42,1.96-100.84,.73-33.42,1.62-67.03,2.69-100.84h75.56c-2.23,21.21-4.36,42.41-6.39,63.57-2.03,21.17-3.49,42.5-4.36,64.01,4.55,.19,9.06,.29,13.51,.29h13.51c5.42,0,10.75-.05,15.98-.15,5.23-.1,10.56-.15,15.98-.15Z"></path><path class="f" d="M2318.92,103.4c-.58,9.11-1.12,18.12-1.6,27.03-.49,8.91-1.12,17.92-1.89,27.03l-61.61,3.2-1.45,18.31h43.3l-3.2,45.05-43.59,1.45-1.45,21.21h61.61c-.58,10.66-1.19,21.24-1.82,31.75-.63,10.51-1.19,21.05-1.67,31.6l-125.25,2.91,4.65-209.53h133.97Z"></path><g><path class="d" d="M1382.76,142.94l-38.18,61.58c-1.24,2-.37,4.64,1.81,5.51l39.6,15.84c1.73,.69,2.7,2.54,2.29,4.35l-10.92,48.34c-.92,4.06,4.44,6.42,6.81,2.99l45.73-66.08c1.4-2.03,.53-4.84-1.78-5.7l-42.5-15.94c-1.67-.63-2.68-2.33-2.42-4.1l6.53-44.25c.6-4.07-4.8-6.04-6.97-2.55Z"></path><path class="d" d="M1381.1,288.21c-1.2,0-2.41-.25-3.59-.76-3.91-1.72-5.98-5.82-5.04-9.98l10.69-47.33-38.64-15.46c-2.42-.97-4.27-2.94-5.08-5.42-.81-2.47-.49-5.16,.88-7.38l38.18-61.58c2.22-3.58,6.53-5.07,10.49-3.62,3.96,1.45,6.29,5.37,5.67,9.54l-6.39,43.28,41.58,15.59c2.55,.96,4.49,3,5.3,5.6,.81,2.6,.39,5.38-1.16,7.63l-45.73,66.08c-1.7,2.46-4.38,3.81-7.17,3.81Zm-31.52-82.28l38.26,15.3c4.03,1.61,6.27,5.86,5.31,10.1l-9.54,42.25,41.29-59.67-41.04-15.39c-3.85-1.44-6.21-5.44-5.61-9.51l5.68-38.46-34.34,55.38Z"></path></g><path class="e" d="M1382.76,142.94l-38.18,61.58c-1.24,2-.37,4.64,1.81,5.51l39.6,15.84c1.73,.69,2.7,2.54,2.29,4.35l-10.92,48.34c-.92,4.06,4.44,6.42,6.81,2.99l45.73-66.08c1.4-2.03,.53-4.84-1.78-5.7l-42.5-15.94c-1.67-.63-2.68-2.33-2.42-4.1l6.53-44.25c.6-4.07-4.8-6.04-6.97-2.55Z"></path></g><g><path class="f" d="M290.59,271.77l-87.91-.09v-.09l-87.91,.09-16.13,29.01c-1.35,3.32-1.48,7.02-.37,10.42l20.82,60.95c1.17,3.58,4.32,6.15,8.06,6.59l24.66,2.87c5.85,.68,10.95-3.99,10.77-9.88l-1.16-38.4c-.03-.89,1.25-1.08,1.48-.21l11.87,44.85c1.02,3.86,4.32,6.7,8.29,7.13l19.62,2.14v.09l19.62-2.14c3.97-.43,7.26-3.27,8.29-7.13l11.87-44.85c.23-.86,1.5-.68,1.48,.21l-1.16,38.4c-.18,5.89,4.91,10.56,10.77,9.88l24.62-2.87c3.76-.44,6.92-3.04,8.08-6.64l20.44-61.04c1.06-3.32,.95-6.91-.32-10.15l-15.77-29.14Z"></path><path class="f" d="M372.92,151.32c0,48.38-10.71,94.4-47.62,126.17-30.59,26.33-77.47,42.87-122.85,42.87s-92.23-16.53-122.81-42.83c-36.94-31.77-47.67-77.81-47.67-126.21C31.97,62.85,119.39,0,202.44,0s170.48,62.85,170.48,151.32Z"></path><path class="d" d="M175.7,231.37c4.59-4,2.74-11.51-3.18-12.91-19.76-4.67-57.98-14.26-71.97-21.6-9.95-5.23-19.69-12.21-26.86-17.81-4.38-3.42-10.67,.29-9.81,5.78,3.68,23.4,15.64,65.42,54.04,65.42,30.09,0,48.16-10.51,57.78-18.88Z"></path><path class="d" d="M228.53,231.37c-4.59-4-2.74-11.51,3.18-12.91,19.76-4.67,57.98-14.26,71.97-21.6,9.95-5.23,19.69-12.21,26.86-17.81,4.38-3.42,10.67,.29,9.81,5.78-3.68,23.4-15.64,65.42-54.04,65.42-30.09,0-48.16-10.51-57.78-18.88Z"></path><path class="d" d="M204.59,229.38c-.68-.4-1.46-.62-2.36-.62-.05,0-.09,0-.14,0-.05,0-.09,0-.14,0-.9,0-1.69,.22-2.36,.62-13.02,6.11-23.19,55.58-12.5,55.58,6.37,0,13.91-6.57,15-7.54,1.08,.97,8.63,7.54,15,7.54,10.9,0,.52-49.47-12.5-55.58Z"></path><g><path class="d" d="M115.22,190.86l-19.53,31.5c-.63,1.02-.19,2.37,.93,2.82l20.26,8.1c.88,.35,1.38,1.3,1.17,2.23l-5.59,24.73c-.47,2.08,2.27,3.28,3.48,1.53l23.4-33.81c.72-1.04,.27-2.47-.91-2.92l-21.74-8.15c-.85-.32-1.37-1.19-1.24-2.1l3.34-22.64c.31-2.08-2.46-3.09-3.56-1.3Z"></path><path class="d" d="M114.37,265.34c-.63,0-1.28-.13-1.9-.4-2.07-.91-3.17-3.08-2.67-5.29l5.44-24.08-19.64-7.86c-1.28-.51-2.26-1.56-2.69-2.87-.43-1.31-.26-2.73,.47-3.91l19.53-31.5c1.18-1.9,3.46-2.68,5.55-1.92,2.09,.77,3.33,2.84,3,5.05l-3.25,22.01,21.15,7.93c1.35,.51,2.38,1.59,2.81,2.97,.43,1.38,.21,2.85-.61,4.04l-23.4,33.81c-.9,1.3-2.32,2.02-3.8,2.02Zm-15.89-42.33l19.4,7.76c2.14,.85,3.32,3.1,2.81,5.35l-4.7,20.82,20.55-29.69-20.81-7.8c-2.04-.76-3.29-2.88-2.97-5.04l2.79-18.93-17.07,27.53Z"></path></g><path class="e" d="M115.22,190.86l-19.53,31.5c-.63,1.02-.19,2.37,.93,2.82l20.26,8.1c.88,.35,1.38,1.3,1.17,2.23l-5.59,24.73c-.47,2.08,2.27,3.28,3.48,1.53l23.4-33.81c.72-1.04,.27-2.47-.91-2.92l-21.74-8.15c-.85-.32-1.37-1.19-1.24-2.1l3.34-22.64c.31-2.08-2.46-3.09-3.56-1.3Z"></path><path class="f" d="M373.48,253.35h-6.2c-15.45,0-27.29-13.75-24.99-29.03l12.4-82.46c1.86-12.37,12.49-21.51,24.99-21.51h0c14.7,0,26.3,12.5,25.2,27.17l-6.2,82.46c-.99,13.19-11.98,23.38-25.2,23.38Z"></path><path class="f" d="M31.47,253.35h6.2c15.45,0,27.29-13.75,24.99-29.03l-12.4-82.46c-1.86-12.37-12.49-21.51-24.99-21.51h0c-14.7,0-26.3,12.5-25.2,27.17l6.2,82.46c.99,13.19,11.98,23.38,25.2,23.38Z"></path></g></g></g></g></symbol>
<symbol viewBox="0 0 2318.92 387.24" id="logo-big-white"><defs><style>.d{fill:#fff;}.e{fill:#f43838;}.f{fill:#1b1b21;}</style></defs><g id="a"></g><g id="b"><g id="c"><g><path class="d" d="M658.73,283.29c-4.55,5.72-10.17,10.71-16.86,14.97-6.68,4.26-13.85,7.8-21.51,10.61-7.65,2.81-15.5,4.92-23.54,6.32-8.04,1.4-15.69,2.11-22.96,2.11-14.05,0-26.98-2.52-38.8-7.56-11.82-5.04-22.01-11.99-30.59-20.85-8.57-8.86-15.28-19.3-20.13-31.31-4.84-12.01-7.27-24.94-7.27-38.8,0-10.56,1.21-20.9,3.63-31.02,2.42-10.12,5.88-19.66,10.39-28.63,4.5-8.96,10-17.19,16.49-24.7,6.49-7.51,13.85-13.97,22.09-19.4,8.23-5.42,17.24-9.64,27.03-12.64,9.78-3,20.24-4.5,31.39-4.5,4.16,0,8.62,.17,13.37,.51,4.75,.34,9.47,.92,14.17,1.74,4.7,.82,9.27,1.96,13.73,3.41,4.45,1.45,8.52,3.25,12.21,5.38l-4.07,55.51c-5.43-2.03-11.02-3.41-16.78-4.14-5.77-.73-11.41-1.09-16.93-1.09-7.75,0-14.99,1.19-21.72,3.56-6.73,2.37-12.59,5.79-17.58,10.24-4.99,4.46-8.94,9.88-11.84,16.27s-4.36,13.61-4.36,21.65c0,5.04,.68,9.91,2.03,14.6,1.35,4.7,3.41,8.86,6.18,12.5s6.2,6.56,10.32,8.79c4.12,2.23,8.89,3.34,14.31,3.34,3.68,0,7.48-.48,11.41-1.45,3.92-.97,7.29-2.62,10.1-4.94l.58-11.33-34.87-.58,1.74-43.59c14.43-.48,28.87-.89,43.3-1.24,14.43-.34,28.96-.8,43.59-1.38l1.74,97.65Z"></path><path class="d" d="M816.44,103.4c-.58,9.11-1.12,18.12-1.6,27.03-.49,8.91-1.12,17.92-1.89,27.03l-61.61,3.2-1.45,18.31h43.3l-3.2,45.05-43.59,1.45-1.45,21.21h61.61c-.58,10.66-1.19,21.24-1.82,31.75-.63,10.51-1.19,21.05-1.67,31.6l-125.25,2.91,4.65-209.53h133.97Z"></path><path class="d" d="M958.99,103.4c-.58,9.11-1.12,18.12-1.6,27.03-.49,8.91-1.12,17.92-1.89,27.03l-61.61,3.2-1.45,18.31h43.3l-3.2,45.05-43.59,1.45-1.45,21.21h61.61c-.58,10.66-1.19,21.24-1.82,31.75-.63,10.51-1.19,21.05-1.67,31.6l-125.25,2.91,4.65-209.53h133.97Z"></path><path class="d" d="M1148.18,104.85l-70.04,96.77,58.99,102.88-67.42,11.92-44.17-62.77-2.32,65.68-60.45,2.32,4.65-222.61,67.71,3.78-5.23,65.68,45.05-69.46,73.23,5.81Z"></path><path class="d" d="M1290.73,108.63l-8.14,61.32c-2.81-.77-5.62-1.31-8.43-1.6-2.81-.29-5.62-.44-8.43-.44-7.17,0-14,.94-20.49,2.83-6.49,1.89-12.23,4.77-17.22,8.65-4.99,3.88-8.96,8.72-11.92,14.53-2.96,5.81-4.43,12.64-4.43,20.49,0,5.04,.8,9.4,2.4,13.08,1.6,3.68,3.85,6.73,6.76,9.15,2.91,2.42,6.34,4.21,10.32,5.38,3.97,1.16,8.33,1.74,13.08,1.74,3.58,0,7.31-.39,11.19-1.16,3.87-.77,7.7-1.79,11.48-3.05,3.78-1.26,7.46-2.71,11.04-4.36,3.58-1.65,6.88-3.34,9.88-5.09l-5.81,68.29c-3.78,1.94-7.87,3.66-12.28,5.16-4.41,1.5-8.94,2.81-13.59,3.92-4.65,1.12-9.3,1.96-13.95,2.54s-9.11,.87-13.37,.87c-12.3,0-23.78-2.28-34.44-6.83-10.66-4.55-19.91-10.8-27.75-18.74-7.85-7.94-14.02-17.31-18.53-28.12-4.5-10.8-6.76-22.45-6.76-34.95,0-16.57,2.37-32.19,7.12-46.86,4.75-14.68,11.72-27.54,20.92-38.58,9.2-11.04,20.61-19.76,34.22-26.16,13.61-6.39,29.28-9.59,47.01-9.59,6.68,0,13.54,.53,20.56,1.6,7.02,1.07,13.54,3.05,19.54,5.96Z"></path><path class="d" d="M1472.8,171.7c-4.5-11.48-10.85-21.26-19.04-29.35-8.19-8.09-18.07-14.31-29.64-18.67-11.58-4.36-24.39-6.54-38.43-6.54-8.72,0-17,1.21-24.85,3.63-7.85,2.42-15.14,5.81-21.87,10.17-6.73,4.36-12.81,9.54-18.24,15.55-5.43,6.01-10.05,12.59-13.88,19.76-3.83,7.17-6.76,14.8-8.79,22.89-2.03,8.09-3.05,16.35-3.05,24.77s1.09,16.91,3.27,24.85c2.18,7.94,5.23,15.38,9.15,22.3,3.92,6.93,8.67,13.22,14.24,18.89,5.57,5.67,11.79,10.51,18.67,14.53,6.88,4.02,14.26,7.15,22.16,9.37,7.89,2.23,16.2,3.34,24.92,3.34s17.53-1.19,25.57-3.56c8.04-2.37,15.48-5.69,22.3-9.95,6.83-4.26,12.98-9.37,18.45-15.33,5.47-5.96,10.12-12.52,13.95-19.69,3.83-7.17,6.76-14.84,8.79-23.03,2.03-8.18,3.05-16.68,3.05-25.5,0-14.14-2.25-26.95-6.76-38.43Z"></path><path class="d" d="M1687.27,104.56l-10.46,197.04-76.14,6.97-40.69-105.49-6.39,107.53h-65.39l5.23-206.05,72.65-3.49,50.28,104.62,2.32-98.81,68.59-2.32Z"></path><path class="d" d="M1847.83,235.63c0,13.27-2.3,24.87-6.9,34.8-4.6,9.93-10.9,18.19-18.89,24.77-7.99,6.59-17.34,11.53-28.04,14.82-10.71,3.29-22.21,4.94-34.51,4.94-4.75,0-9.95-.63-15.62-1.89s-11.41-2.83-17.22-4.72-11.41-3.92-16.78-6.1c-5.38-2.18-10.15-4.24-14.31-6.18l6.39-59.87c8.23,4.94,17.36,8.7,27.39,11.26,10.03,2.57,19.88,3.85,29.57,3.85,1.84,0,4.07-.07,6.68-.22s5.11-.58,7.48-1.31c2.37-.73,4.38-1.82,6.03-3.27,1.65-1.45,2.47-3.53,2.47-6.25,0-1.84-.58-3.41-1.74-4.72s-2.67-2.37-4.5-3.2c-1.84-.82-3.92-1.45-6.25-1.89s-4.6-.75-6.83-.94c-2.23-.19-4.31-.29-6.25-.29h-4.65c-8.33,0-15.91-1.45-22.74-4.36-6.83-2.91-12.69-6.95-17.58-12.13-4.89-5.18-8.7-11.33-11.41-18.45-2.71-7.12-4.07-14.84-4.07-23.18,0-11.43,2.3-21.67,6.9-30.73,4.6-9.06,10.75-16.76,18.45-23.1,7.7-6.34,16.54-11.21,26.52-14.6,9.98-3.39,20.29-5.09,30.95-5.09,4.75,0,9.64,.17,14.68,.51,5.04,.34,10.05,.94,15.04,1.82,4.99,.87,9.86,1.99,14.6,3.34,4.75,1.36,9.25,3.05,13.51,5.09l-5.52,58.99c-6.59-2.23-13.49-4.09-20.71-5.59-7.22-1.5-14.27-2.25-21.14-2.25-1.26,0-2.88,.03-4.87,.07-1.99,.05-4.07,.19-6.25,.44-2.18,.24-4.38,.61-6.61,1.09-2.23,.49-4.21,1.14-5.96,1.96-1.74,.82-3.15,1.91-4.21,3.27-1.07,1.36-1.55,2.96-1.45,4.8,.1,2.13,.89,3.85,2.4,5.16,1.5,1.31,3.44,2.32,5.81,3.05,2.37,.73,4.99,1.24,7.85,1.53,2.86,.29,5.69,.46,8.5,.51,2.81,.05,5.42,.05,7.85,0,2.42-.05,4.41,.03,5.96,.22,7.75,.49,14.72,2.13,20.92,4.94,6.2,2.81,11.45,6.54,15.77,11.19,4.31,4.65,7.6,10.2,9.88,16.64,2.28,6.44,3.41,13.54,3.41,21.29Z"></path><path class="d" d="M2036.59,210.35c0,8.82-1.02,17.32-3.05,25.5-2.03,8.19-4.97,15.86-8.79,23.03-3.83,7.17-8.48,13.73-13.95,19.69-5.47,5.96-11.62,11.07-18.45,15.33-6.83,4.26-14.27,7.58-22.3,9.95-8.04,2.37-16.57,3.56-25.57,3.56s-17.03-1.11-24.92-3.34c-7.9-2.23-15.28-5.35-22.16-9.37-6.88-4.02-13.1-8.86-18.67-14.53-5.57-5.67-10.32-11.96-14.24-18.89-3.92-6.93-6.97-14.36-9.15-22.3-2.18-7.94-3.27-16.22-3.27-24.85s1.02-16.68,3.05-24.77c2.03-8.09,4.96-15.72,8.79-22.89,3.83-7.17,8.45-13.75,13.88-19.76,5.42-6,11.5-11.19,18.24-15.55,6.73-4.36,14.02-7.75,21.87-10.17,7.85-2.42,16.13-3.63,24.85-3.63,14.05,0,26.86,2.18,38.43,6.54,11.57,4.36,21.46,10.58,29.64,18.67,8.18,8.09,14.53,17.87,19.04,29.35s6.76,24.29,6.76,38.43Zm-64.52,3.78c0-4.16-.61-8.21-1.82-12.13-1.21-3.92-2.98-7.41-5.3-10.46s-5.21-5.52-8.65-7.41c-3.44-1.89-7.39-2.83-11.84-2.83s-8.62,.82-12.21,2.47c-3.59,1.65-6.66,3.9-9.23,6.76-2.57,2.86-4.53,6.2-5.88,10.03-1.36,3.83-2.03,7.87-2.03,12.13s.58,8.14,1.74,12.21,2.91,7.75,5.23,11.04c2.32,3.29,5.21,5.96,8.65,7.99,3.44,2.03,7.43,3.05,11.99,3.05s8.65-.89,12.28-2.69c3.63-1.79,6.71-4.21,9.23-7.27,2.52-3.05,4.45-6.56,5.81-10.53,1.35-3.97,2.03-8.09,2.03-12.35Z"></path><path class="d" d="M2174.49,230.11l-6.1,64.52-122.35,9.59c.58-33.81,1.24-67.42,1.96-100.84,.73-33.42,1.62-67.03,2.69-100.84h75.56c-2.23,21.21-4.36,42.41-6.39,63.57-2.03,21.17-3.49,42.5-4.36,64.01,4.55,.19,9.06,.29,13.51,.29h13.51c5.42,0,10.75-.05,15.98-.15,5.23-.1,10.56-.15,15.98-.15Z"></path><path class="d" d="M2318.92,103.4c-.58,9.11-1.12,18.12-1.6,27.03-.49,8.91-1.12,17.92-1.89,27.03l-61.61,3.2-1.45,18.31h43.3l-3.2,45.05-43.59,1.45-1.45,21.21h61.61c-.58,10.66-1.19,21.24-1.82,31.75-.63,10.51-1.19,21.05-1.67,31.6l-125.25,2.91,4.65-209.53h133.97Z"></path><g><path class="d" d="M1382.76,142.94l-38.18,61.58c-1.24,2-.37,4.64,1.81,5.51l39.6,15.84c1.73,.69,2.7,2.54,2.29,4.35l-10.92,48.34c-.92,4.06,4.44,6.42,6.81,2.99l45.73-66.08c1.4-2.03,.53-4.84-1.78-5.7l-42.5-15.94c-1.67-.63-2.68-2.33-2.42-4.1l6.53-44.25c.6-4.07-4.8-6.04-6.97-2.55Z"></path><path class="d" d="M1381.1,288.21c-1.2,0-2.41-.25-3.59-.76-3.91-1.72-5.98-5.82-5.04-9.98l10.69-47.33-38.64-15.46c-2.42-.97-4.27-2.94-5.08-5.42-.81-2.47-.49-5.16,.88-7.38l38.18-61.58c2.22-3.58,6.53-5.07,10.49-3.62,3.96,1.45,6.29,5.37,5.67,9.54l-6.39,43.28,41.58,15.59c2.55,.96,4.49,3,5.3,5.6,.81,2.6,.39,5.38-1.16,7.63l-45.73,66.08c-1.7,2.46-4.38,3.81-7.17,3.81Zm-31.52-82.28l38.26,15.3c4.03,1.61,6.27,5.86,5.31,10.1l-9.54,42.25,41.29-59.67-41.04-15.39c-3.85-1.44-6.21-5.44-5.61-9.51l5.68-38.46-34.34,55.38Z"></path></g><path class="e" d="M1382.76,142.94l-38.18,61.58c-1.24,2-.37,4.64,1.81,5.51l39.6,15.84c1.73,.69,2.7,2.54,2.29,4.35l-10.92,48.34c-.92,4.06,4.44,6.42,6.81,2.99l45.73-66.08c1.4-2.03,.53-4.84-1.78-5.7l-42.5-15.94c-1.67-.63-2.68-2.33-2.42-4.1l6.53-44.25c.6-4.07-4.8-6.04-6.97-2.55Z"></path><path class="d" d="M290.59,271.77l-87.91-.09v-.09l-87.91,.09-16.13,29.01c-1.35,3.32-1.48,7.02-.37,10.42l20.82,60.95c1.17,3.58,4.32,6.15,8.06,6.59l24.66,2.87c5.85,.68,10.95-3.99,10.77-9.88l-1.16-38.4c-.03-.89,1.25-1.08,1.48-.21l11.87,44.85c1.02,3.86,4.32,6.7,8.29,7.13l19.62,2.14v.09l19.62-2.14c3.97-.43,7.26-3.27,8.29-7.13l11.87-44.85c.23-.86,1.5-.68,1.48,.21l-1.16,38.4c-.18,5.89,4.91,10.56,10.77,9.88l24.62-2.87c3.76-.44,6.92-3.04,8.08-6.64l20.44-61.04c1.06-3.32,.95-6.91-.32-10.15l-15.77-29.14Z"></path><path class="d" d="M372.92,151.32c0,48.38-10.71,94.4-47.62,126.17-30.59,26.33-77.47,42.87-122.85,42.87s-92.23-16.53-122.81-42.83c-36.94-31.77-47.67-77.81-47.67-126.21C31.97,62.85,119.39,0,202.44,0s170.48,62.85,170.48,151.32Z"></path><path class="f" d="M175.7,231.37c4.59-4,2.74-11.51-3.18-12.91-19.76-4.67-57.98-14.26-71.97-21.6-9.95-5.23-19.69-12.21-26.86-17.81-4.38-3.42-10.67,.29-9.81,5.78,3.68,23.4,15.64,65.42,54.04,65.42,30.09,0,48.16-10.51,57.78-18.88Z"></path><path class="f" d="M228.53,231.37c-4.59-4-2.74-11.51,3.18-12.91,19.76-4.67,57.98-14.26,71.97-21.6,9.95-5.23,19.69-12.21,26.86-17.81,4.38-3.42,10.67,.29,9.81,5.78-3.68,23.4-15.64,65.42-54.04,65.42-30.09,0-48.16-10.51-57.78-18.88Z"></path><path class="f" d="M204.59,229.38c-.68-.4-1.46-.62-2.36-.62-.05,0-.09,0-.14,0-.05,0-.09,0-.14,0-.9,0-1.69,.22-2.36,.62-13.02,6.11-23.19,55.58-12.5,55.58,6.37,0,13.91-6.57,15-7.54,1.08,.97,8.63,7.54,15,7.54,10.9,0,.52-49.47-12.5-55.58Z"></path><g><path class="d" d="M115.22,190.86l-19.53,31.5c-.63,1.02-.19,2.37,.93,2.82l20.26,8.1c.88,.35,1.38,1.3,1.17,2.23l-5.59,24.73c-.47,2.08,2.27,3.28,3.48,1.53l23.4-33.81c.72-1.04,.27-2.47-.91-2.92l-21.74-8.15c-.85-.32-1.37-1.19-1.24-2.1l3.34-22.64c.31-2.08-2.46-3.09-3.56-1.3Z"></path><path class="d" d="M114.37,265.34c-.63,0-1.28-.13-1.9-.4-2.07-.91-3.17-3.08-2.67-5.29l5.44-24.08-19.64-7.86c-1.28-.51-2.26-1.56-2.69-2.87-.43-1.31-.26-2.73,.47-3.91l19.53-31.5c1.18-1.9,3.46-2.68,5.55-1.92,2.09,.77,3.33,2.84,3,5.05l-3.25,22.01,21.15,7.93c1.35,.51,2.38,1.59,2.81,2.97,.43,1.38,.21,2.85-.61,4.04l-23.4,33.81c-.9,1.3-2.32,2.02-3.8,2.02Zm-15.89-42.33l19.4,7.76c2.14,.85,3.32,3.1,2.81,5.35l-4.7,20.82,20.55-29.69-20.81-7.8c-2.04-.76-3.29-2.88-2.97-5.04l2.79-18.93-17.07,27.53Z"></path></g><path class="e" d="M115.22,190.86l-19.53,31.5c-.63,1.02-.19,2.37,.93,2.82l20.26,8.1c.88,.35,1.38,1.3,1.17,2.23l-5.59,24.73c-.47,2.08,2.27,3.28,3.48,1.53l23.4-33.81c.72-1.04,.27-2.47-.91-2.92l-21.74-8.15c-.85-.32-1.37-1.19-1.24-2.1l3.34-22.64c.31-2.08-2.46-3.09-3.56-1.3Z"></path><path class="d" d="M373.48,253.35h-6.2c-15.45,0-27.29-13.75-24.99-29.03l12.4-82.46c1.86-12.37,12.49-21.51,24.99-21.51h0c14.7,0,26.3,12.5,25.2,27.17l-6.2,82.46c-.99,13.19-11.98,23.38-25.2,23.38Z"></path><path class="d" d="M31.47,253.35h6.2c15.45,0,27.29-13.75,24.99-29.03l-12.4-82.46c-1.86-12.37-12.49-21.51-24.99-21.51h0c-14.7,0-26.3,12.5-25.2,27.17l6.2,82.46c.99,13.19,11.98,23.38,25.2,23.38Z"></path></g></g></g></symbol>
<symbol viewBox="0 0 404.95 387.24" id="logo-black"><defs><style>.d{fill:#fff;}.e{fill:#f43838;}.f{fill:#1b1b21;}</style></defs><g id="a"></g><g id="b"><g id="c"><g><path class="f" d="M290.59,271.77l-87.91-.09v-.09l-87.91,.09-16.13,29.01c-1.35,3.32-1.48,7.02-.37,10.42l20.82,60.95c1.17,3.58,4.32,6.15,8.06,6.59l24.66,2.87c5.85,.68,10.95-3.99,10.77-9.88l-1.16-38.4c-.03-.89,1.25-1.08,1.48-.21l11.87,44.85c1.02,3.86,4.32,6.7,8.29,7.13l19.62,2.14v.09l19.62-2.14c3.97-.43,7.26-3.27,8.29-7.13l11.87-44.85c.23-.86,1.5-.68,1.48,.21l-1.16,38.4c-.18,5.89,4.91,10.56,10.77,9.88l24.62-2.87c3.76-.44,6.92-3.04,8.08-6.64l20.44-61.04c1.06-3.32,.95-6.91-.32-10.15l-15.77-29.14Z"></path><path class="f" d="M372.92,151.32c0,48.38-10.71,94.4-47.62,126.17-30.59,26.33-77.47,42.87-122.85,42.87s-92.23-16.53-122.81-42.83c-36.94-31.77-47.67-77.81-47.67-126.21C31.97,62.85,119.39,0,202.44,0s170.48,62.85,170.48,151.32Z"></path><path class="d" d="M175.7,231.37c4.59-4,2.74-11.51-3.18-12.91-19.76-4.67-57.98-14.26-71.97-21.6-9.95-5.23-19.69-12.21-26.86-17.81-4.38-3.42-10.67,.29-9.81,5.78,3.68,23.4,15.64,65.42,54.04,65.42,30.09,0,48.16-10.51,57.78-18.88Z"></path><path class="d" d="M228.53,231.37c-4.59-4-2.74-11.51,3.18-12.91,19.76-4.67,57.98-14.26,71.97-21.6,9.95-5.23,19.69-12.21,26.86-17.81,4.38-3.42,10.67,.29,9.81,5.78-3.68,23.4-15.64,65.42-54.04,65.42-30.09,0-48.16-10.51-57.78-18.88Z"></path><path class="d" d="M204.59,229.38c-.68-.4-1.46-.62-2.36-.62-.05,0-.09,0-.14,0-.05,0-.09,0-.14,0-.9,0-1.69,.22-2.36,.62-13.02,6.11-23.19,55.58-12.5,55.58,6.37,0,13.91-6.57,15-7.54,1.08,.97,8.63,7.54,15,7.54,10.9,0,.52-49.47-12.5-55.58Z"></path><g><path class="d" d="M115.22,190.86l-19.53,31.5c-.63,1.02-.19,2.37,.93,2.82l20.26,8.1c.88,.35,1.38,1.3,1.17,2.23l-5.59,24.73c-.47,2.08,2.27,3.28,3.48,1.53l23.4-33.81c.72-1.04,.27-2.47-.91-2.92l-21.74-8.15c-.85-.32-1.37-1.19-1.24-2.1l3.34-22.64c.31-2.08-2.46-3.09-3.56-1.3Z"></path><path class="d" d="M114.37,265.34c-.63,0-1.28-.13-1.9-.4-2.07-.91-3.17-3.08-2.67-5.29l5.44-24.08-19.64-7.86c-1.28-.51-2.26-1.56-2.69-2.87-.43-1.31-.26-2.73,.47-3.91l19.53-31.5c1.18-1.9,3.46-2.68,5.55-1.92,2.09,.77,3.33,2.84,3,5.05l-3.25,22.01,21.15,7.93c1.35,.51,2.38,1.59,2.81,2.97,.43,1.38,.21,2.85-.61,4.04l-23.4,33.81c-.9,1.3-2.32,2.02-3.8,2.02Zm-15.89-42.33l19.4,7.76c2.14,.85,3.32,3.1,2.81,5.35l-4.7,20.82,20.55-29.69-20.81-7.8c-2.04-.76-3.29-2.88-2.97-5.04l2.79-18.93-17.07,27.53Z"></path></g><path class="e" d="M115.22,190.86l-19.53,31.5c-.63,1.02-.19,2.37,.93,2.82l20.26,8.1c.88,.35,1.38,1.3,1.17,2.23l-5.59,24.73c-.47,2.08,2.27,3.28,3.48,1.53l23.4-33.81c.72-1.04,.27-2.47-.91-2.92l-21.74-8.15c-.85-.32-1.37-1.19-1.24-2.1l3.34-22.64c.31-2.08-2.46-3.09-3.56-1.3Z"></path><path class="f" d="M373.48,253.35h-6.2c-15.45,0-27.29-13.75-24.99-29.03l12.4-82.46c1.86-12.37,12.49-21.51,24.99-21.51h0c14.7,0,26.3,12.5,25.2,27.17l-6.2,82.46c-.99,13.19-11.98,23.38-25.2,23.38Z"></path><path class="f" d="M31.47,253.35h6.2c15.45,0,27.29-13.75,24.99-29.03l-12.4-82.46c-1.86-12.37-12.49-21.51-24.99-21.51h0c-14.7,0-26.3,12.5-25.2,27.17l6.2,82.46c.99,13.19,11.98,23.38,25.2,23.38Z"></path></g></g></g></symbol>
<symbol viewBox="0 0 404.95 387.24" id="logo-white"><defs><style>.d{fill:#fff;}.e{fill:#f43838;}.f{fill:#1b1b21;}</style></defs><g id="a"></g><g id="b"><g id="c"><g><path class="d" d="M290.59,271.77l-87.91-.09v-.09l-87.91,.09-16.13,29.01c-1.35,3.32-1.48,7.02-.37,10.42l20.82,60.95c1.17,3.58,4.32,6.15,8.06,6.59l24.66,2.87c5.85,.68,10.95-3.99,10.77-9.88l-1.16-38.4c-.03-.89,1.25-1.08,1.48-.21l11.87,44.85c1.02,3.86,4.32,6.7,8.29,7.13l19.62,2.14v.09l19.62-2.14c3.97-.43,7.26-3.27,8.29-7.13l11.87-44.85c.23-.86,1.5-.68,1.48,.21l-1.16,38.4c-.18,5.89,4.91,10.56,10.77,9.88l24.62-2.87c3.76-.44,6.92-3.04,8.08-6.64l20.44-61.04c1.06-3.32,.95-6.91-.32-10.15l-15.77-29.14Z"></path><path class="d" d="M372.92,151.32c0,48.38-10.71,94.4-47.62,126.17-30.59,26.33-77.47,42.87-122.85,42.87s-92.23-16.53-122.81-42.83c-36.94-31.77-47.67-77.81-47.67-126.21C31.97,62.85,119.39,0,202.44,0s170.48,62.85,170.48,151.32Z"></path><path class="f" d="M175.7,231.37c4.59-4,2.74-11.51-3.18-12.91-19.76-4.67-57.98-14.26-71.97-21.6-9.95-5.23-19.69-12.21-26.86-17.81-4.38-3.42-10.67,.29-9.81,5.78,3.68,23.4,15.64,65.42,54.04,65.42,30.09,0,48.16-10.51,57.78-18.88Z"></path><path class="f" d="M228.53,231.37c-4.59-4-2.74-11.51,3.18-12.91,19.76-4.67,57.98-14.26,71.97-21.6,9.95-5.23,19.69-12.21,26.86-17.81,4.38-3.42,10.67,.29,9.81,5.78-3.68,23.4-15.64,65.42-54.04,65.42-30.09,0-48.16-10.51-57.78-18.88Z"></path><path class="f" d="M204.59,229.38c-.68-.4-1.46-.62-2.36-.62-.05,0-.09,0-.14,0-.05,0-.09,0-.14,0-.9,0-1.69,.22-2.36,.62-13.02,6.11-23.19,55.58-12.5,55.58,6.37,0,13.91-6.57,15-7.54,1.08,.97,8.63,7.54,15,7.54,10.9,0,.52-49.47-12.5-55.58Z"></path><g><path class="d" d="M115.22,190.86l-19.53,31.5c-.63,1.02-.19,2.37,.93,2.82l20.26,8.1c.88,.35,1.38,1.3,1.17,2.23l-5.59,24.73c-.47,2.08,2.27,3.28,3.48,1.53l23.4-33.81c.72-1.04,.27-2.47-.91-2.92l-21.74-8.15c-.85-.32-1.37-1.19-1.24-2.1l3.34-22.64c.31-2.08-2.46-3.09-3.56-1.3Z"></path><path class="d" d="M114.37,265.34c-.63,0-1.28-.13-1.9-.4-2.07-.91-3.17-3.08-2.67-5.29l5.44-24.08-19.64-7.86c-1.28-.51-2.26-1.56-2.69-2.87-.43-1.31-.26-2.73,.47-3.91l19.53-31.5c1.18-1.9,3.46-2.68,5.55-1.92,2.09,.77,3.33,2.84,3,5.05l-3.25,22.01,21.15,7.93c1.35,.51,2.38,1.59,2.81,2.97,.43,1.38,.21,2.85-.61,4.04l-23.4,33.81c-.9,1.3-2.32,2.02-3.8,2.02Zm-15.89-42.33l19.4,7.76c2.14,.85,3.32,3.1,2.81,5.35l-4.7,20.82,20.55-29.69-20.81-7.8c-2.04-.76-3.29-2.88-2.97-5.04l2.79-18.93-17.07,27.53Z"></path></g><path class="e" d="M115.22,190.86l-19.53,31.5c-.63,1.02-.19,2.37,.93,2.82l20.26,8.1c.88,.35,1.38,1.3,1.17,2.23l-5.59,24.73c-.47,2.08,2.27,3.28,3.48,1.53l23.4-33.81c.72-1.04,.27-2.47-.91-2.92l-21.74-8.15c-.85-.32-1.37-1.19-1.24-2.1l3.34-22.64c.31-2.08-2.46-3.09-3.56-1.3Z"></path><path class="d" d="M373.48,253.35h-6.2c-15.45,0-27.29-13.75-24.99-29.03l12.4-82.46c1.86-12.37,12.49-21.51,24.99-21.51h0c14.7,0,26.3,12.5,25.2,27.17l-6.2,82.46c-.99,13.19-11.98,23.38-25.2,23.38Z"></path><path class="d" d="M31.47,253.35h6.2c15.45,0,27.29-13.75,24.99-29.03l-12.4-82.46c-1.86-12.37-12.49-21.51-24.99-21.51h0c-14.7,0-26.3,12.5-25.2,27.17l6.2,82.46c.99,13.19,11.98,23.38,25.2,23.38Z"></path></g></g></g></symbol>
<symbol viewBox="0 0 15 15" fill="none" id="magnifying-glass">
  <path     fill-rule="evenodd"
    clip-rule="evenodd"
    d="M10 6.5C10 8.433 8.433 10 6.5 10C4.567 10 3 8.433 3 6.5C3 4.567 4.567 3 6.5 3C8.433 3 10 4.567 10 6.5ZM9.30884 10.0159C8.53901 10.6318 7.56251 11 6.5 11C4.01472 11 2 8.98528 2 6.5C2 4.01472 4.01472 2 6.5 2C8.98528 2 11 4.01472 11 6.5C11 7.56251 10.6318 8.53901 10.0159 9.30884L12.8536 12.1464C13.0488 12.3417 13.0488 12.6583 12.8536 12.8536C12.6583 13.0488 12.3417 13.0488 12.1464 12.8536L9.30884 10.0159Z"
    fill="currentColor"
  ></path>
</symbol>
<symbol viewBox="0 0 15 15" fill="none" id="mixer-horizontal">
  <path     fill-rule="evenodd"
    clip-rule="evenodd"
    d="M5.5 3C4.67157 3 4 3.67157 4 4.5C4 5.32843 4.67157 6 5.5 6C6.32843 6 7 5.32843 7 4.5C7 3.67157 6.32843 3 5.5 3ZM3 5C3.01671 5 3.03323 4.99918 3.04952 4.99758C3.28022 6.1399 4.28967 7 5.5 7C6.71033 7 7.71978 6.1399 7.95048 4.99758C7.96677 4.99918 7.98329 5 8 5H13.5C13.7761 5 14 4.77614 14 4.5C14 4.22386 13.7761 4 13.5 4H8C7.98329 4 7.96677 4.00082 7.95048 4.00242C7.71978 2.86009 6.71033 2 5.5 2C4.28967 2 3.28022 2.86009 3.04952 4.00242C3.03323 4.00082 3.01671 4 3 4H1.5C1.22386 4 1 4.22386 1 4.5C1 4.77614 1.22386 5 1.5 5H3ZM11.9505 10.9976C11.7198 12.1399 10.7103 13 9.5 13C8.28967 13 7.28022 12.1399 7.04952 10.9976C7.03323 10.9992 7.01671 11 7 11H1.5C1.22386 11 1 10.7761 1 10.5C1 10.2239 1.22386 10 1.5 10H7C7.01671 10 7.03323 10.0008 7.04952 10.0024C7.28022 8.8601 8.28967 8 9.5 8C10.7103 8 11.7198 8.8601 11.9505 10.0024C11.9668 10.0008 11.9833 10 12 10H13.5C13.7761 10 14 10.2239 14 10.5C14 10.7761 13.7761 11 13.5 11H12C11.9833 11 11.9668 10.9992 11.9505 10.9976ZM8 10.5C8 9.67157 8.67157 9 9.5 9C10.3284 9 11 9.67157 11 10.5C11 11.3284 10.3284 12 9.5 12C8.67157 12 8 11.3284 8 10.5Z"
    fill="currentColor"
  ></path>
</symbol>
<symbol viewBox="0 0 15 15" fill="none" id="moon">
  <path     fill-rule="evenodd"
    clip-rule="evenodd"
    d="M2.89998 0.499976C2.89998 0.279062 2.72089 0.0999756 2.49998 0.0999756C2.27906 0.0999756 2.09998 0.279062 2.09998 0.499976V1.09998H1.49998C1.27906 1.09998 1.09998 1.27906 1.09998 1.49998C1.09998 1.72089 1.27906 1.89998 1.49998 1.89998H2.09998V2.49998C2.09998 2.72089 2.27906 2.89998 2.49998 2.89998C2.72089 2.89998 2.89998 2.72089 2.89998 2.49998V1.89998H3.49998C3.72089 1.89998 3.89998 1.72089 3.89998 1.49998C3.89998 1.27906 3.72089 1.09998 3.49998 1.09998H2.89998V0.499976ZM5.89998 3.49998C5.89998 3.27906 5.72089 3.09998 5.49998 3.09998C5.27906 3.09998 5.09998 3.27906 5.09998 3.49998V4.09998H4.49998C4.27906 4.09998 4.09998 4.27906 4.09998 4.49998C4.09998 4.72089 4.27906 4.89998 4.49998 4.89998H5.09998V5.49998C5.09998 5.72089 5.27906 5.89998 5.49998 5.89998C5.72089 5.89998 5.89998 5.72089 5.89998 5.49998V4.89998H6.49998C6.72089 4.89998 6.89998 4.72089 6.89998 4.49998C6.89998 4.27906 6.72089 4.09998 6.49998 4.09998H5.89998V3.49998ZM1.89998 6.49998C1.89998 6.27906 1.72089 6.09998 1.49998 6.09998C1.27906 6.09998 1.09998 6.27906 1.09998 6.49998V7.09998H0.499976C0.279062 7.09998 0.0999756 7.27906 0.0999756 7.49998C0.0999756 7.72089 0.279062 7.89998 0.499976 7.89998H1.09998V8.49998C1.09998 8.72089 1.27906 8.89997 1.49998 8.89997C1.72089 8.89997 1.89998 8.72089 1.89998 8.49998V7.89998H2.49998C2.72089 7.89998 2.89998 7.72089 2.89998 7.49998C2.89998 7.27906 2.72089 7.09998 2.49998 7.09998H1.89998V6.49998ZM8.54406 0.98184L8.24618 0.941586C8.03275 0.917676 7.90692 1.1655 8.02936 1.34194C8.17013 1.54479 8.29981 1.75592 8.41754 1.97445C8.91878 2.90485 9.20322 3.96932 9.20322 5.10022C9.20322 8.37201 6.82247 11.0878 3.69887 11.6097C3.45736 11.65 3.20988 11.6772 2.96008 11.6906C2.74563 11.702 2.62729 11.9535 2.77721 12.1072C2.84551 12.1773 2.91535 12.2458 2.98667 12.3128L3.05883 12.3795L3.31883 12.6045L3.50684 12.7532L3.62796 12.8433L3.81491 12.9742L3.99079 13.089C4.11175 13.1651 4.23536 13.2375 4.36157 13.3059L4.62496 13.4412L4.88553 13.5607L5.18837 13.6828L5.43169 13.7686C5.56564 13.8128 5.70149 13.8529 5.83857 13.8885C5.94262 13.9155 6.04767 13.9401 6.15405 13.9622C6.27993 13.9883 6.40713 14.0109 6.53544 14.0298L6.85241 14.0685L7.11934 14.0892C7.24637 14.0965 7.37436 14.1002 7.50322 14.1002C11.1483 14.1002 14.1032 11.1453 14.1032 7.50023C14.1032 7.25044 14.0893 7.00389 14.0623 6.76131L14.0255 6.48407C13.991 6.26083 13.9453 6.04129 13.8891 5.82642C13.8213 5.56709 13.7382 5.31398 13.6409 5.06881L13.5279 4.80132L13.4507 4.63542L13.3766 4.48666C13.2178 4.17773 13.0353 3.88295 12.8312 3.60423L12.6782 3.40352L12.4793 3.16432L12.3157 2.98361L12.1961 2.85951L12.0355 2.70246L11.8134 2.50184L11.4925 2.24191L11.2483 2.06498L10.9562 1.87446L10.6346 1.68894L10.3073 1.52378L10.1938 1.47176L9.95488 1.3706L9.67791 1.2669L9.42566 1.1846L9.10075 1.09489L8.83599 1.03486L8.54406 0.98184ZM10.4032 5.30023C10.4032 4.27588 10.2002 3.29829 9.83244 2.40604C11.7623 3.28995 13.1032 5.23862 13.1032 7.50023C13.1032 10.593 10.596 13.1002 7.50322 13.1002C6.63646 13.1002 5.81597 12.9036 5.08355 12.5522C6.5419 12.0941 7.81081 11.2082 8.74322 10.0416C8.87963 10.2284 9.10028 10.3497 9.34928 10.3497C9.76349 10.3497 10.0993 10.0139 10.0993 9.59971C10.0993 9.24256 9.84965 8.94373 9.51535 8.86816C9.57741 8.75165 9.63653 8.63334 9.6926 8.51332C9.88358 8.63163 10.1088 8.69993 10.35 8.69993C11.0403 8.69993 11.6 8.14028 11.6 7.44993C11.6 6.75976 11.0406 6.20024 10.3505 6.19993C10.3853 5.90487 10.4032 5.60464 10.4032 5.30023Z"
    fill="currentColor"
  ></path>
</symbol>
<symbol viewBox="0 0 24 24" fill="none" stroke="currentColor" stroke-width="2" stroke-linecap="round" stroke-linejoin="round" class="lucide lucide-more-horizontal" id="more-horizontal"><circle cx="12" cy="12" r="1"></circle><circle cx="19" cy="12" r="1"></circle><circle cx="5" cy="12" r="1"></circle></symbol>
<symbol viewBox="0 0 15 15" fill="none" id="pencil-1">
  <path     fill-rule="evenodd"
    clip-rule="evenodd"
    d="M11.8536 1.14645C11.6583 0.951184 11.3417 0.951184 11.1465 1.14645L3.71455 8.57836C3.62459 8.66832 3.55263 8.77461 3.50251 8.89155L2.04044 12.303C1.9599 12.491 2.00189 12.709 2.14646 12.8536C2.29103 12.9981 2.50905 13.0401 2.69697 12.9596L6.10847 11.4975C6.2254 11.4474 6.3317 11.3754 6.42166 11.2855L13.8536 3.85355C14.0488 3.65829 14.0488 3.34171 13.8536 3.14645L11.8536 1.14645ZM4.42166 9.28547L11.5 2.20711L12.7929 3.5L5.71455 10.5784L4.21924 11.2192L3.78081 10.7808L4.42166 9.28547Z"
    fill="currentColor"
  ></path>
</symbol>
<symbol viewBox="0 0 15 15" fill="none" id="pencil-2">
  <path     fill-rule="evenodd"
    clip-rule="evenodd"
    d="M12.1464 1.14645C12.3417 0.951184 12.6583 0.951184 12.8535 1.14645L14.8535 3.14645C15.0488 3.34171 15.0488 3.65829 14.8535 3.85355L10.9109 7.79618C10.8349 7.87218 10.7471 7.93543 10.651 7.9835L6.72359 9.94721C6.53109 10.0435 6.29861 10.0057 6.14643 9.85355C5.99425 9.70137 5.95652 9.46889 6.05277 9.27639L8.01648 5.34897C8.06455 5.25283 8.1278 5.16507 8.2038 5.08907L12.1464 1.14645ZM12.5 2.20711L8.91091 5.79618L7.87266 7.87267L8.12731 8.12732L10.2038 7.08907L13.7929 3.5L12.5 2.20711ZM9.99998 2L8.99998 3H4.9C4.47171 3 4.18056 3.00039 3.95552 3.01877C3.73631 3.03668 3.62421 3.06915 3.54601 3.10899C3.35785 3.20487 3.20487 3.35785 3.10899 3.54601C3.06915 3.62421 3.03669 3.73631 3.01878 3.95552C3.00039 4.18056 3 4.47171 3 4.9V11.1C3 11.5283 3.00039 11.8194 3.01878 12.0445C3.03669 12.2637 3.06915 12.3758 3.10899 12.454C3.20487 12.6422 3.35785 12.7951 3.54601 12.891C3.62421 12.9309 3.73631 12.9633 3.95552 12.9812C4.18056 12.9996 4.47171 13 4.9 13H11.1C11.5283 13 11.8194 12.9996 12.0445 12.9812C12.2637 12.9633 12.3758 12.9309 12.454 12.891C12.6422 12.7951 12.7951 12.6422 12.891 12.454C12.9309 12.3758 12.9633 12.2637 12.9812 12.0445C12.9996 11.8194 13 11.5283 13 11.1V6.99998L14 5.99998V11.1V11.1207C14 11.5231 14 11.8553 13.9779 12.1259C13.9549 12.407 13.9057 12.6653 13.782 12.908C13.5903 13.2843 13.2843 13.5903 12.908 13.782C12.6653 13.9057 12.407 13.9549 12.1259 13.9779C11.8553 14 11.5231 14 11.1207 14H11.1H4.9H4.87934C4.47686 14 4.14468 14 3.87409 13.9779C3.59304 13.9549 3.33469 13.9057 3.09202 13.782C2.7157 13.5903 2.40973 13.2843 2.21799 12.908C2.09434 12.6653 2.04506 12.407 2.0221 12.1259C1.99999 11.8553 1.99999 11.5231 2 11.1207V11.1206V11.1V4.9V4.87935V4.87932V4.87931C1.99999 4.47685 1.99999 4.14468 2.0221 3.87409C2.04506 3.59304 2.09434 3.33469 2.21799 3.09202C2.40973 2.71569 2.7157 2.40973 3.09202 2.21799C3.33469 2.09434 3.59304 2.04506 3.87409 2.0221C4.14468 1.99999 4.47685 1.99999 4.87932 2H4.87935H4.9H9.99998Z"
    fill="currentColor"
  ></path>
</symbol>
<symbol viewBox="0 0 15 15" fill="none" id="plus-circled">
  <path     fill-rule="evenodd"
    clip-rule="evenodd"
    d="M7.49991 0.876892C3.84222 0.876892 0.877075 3.84204 0.877075 7.49972C0.877075 11.1574 3.84222 14.1226 7.49991 14.1226C11.1576 14.1226 14.1227 11.1574 14.1227 7.49972C14.1227 3.84204 11.1576 0.876892 7.49991 0.876892ZM1.82707 7.49972C1.82707 4.36671 4.36689 1.82689 7.49991 1.82689C10.6329 1.82689 13.1727 4.36671 13.1727 7.49972C13.1727 10.6327 10.6329 13.1726 7.49991 13.1726C4.36689 13.1726 1.82707 10.6327 1.82707 7.49972ZM7.50003 4C7.77617 4 8.00003 4.22386 8.00003 4.5V7H10.5C10.7762 7 11 7.22386 11 7.5C11 7.77614 10.7762 8 10.5 8H8.00003V10.5C8.00003 10.7761 7.77617 11 7.50003 11C7.22389 11 7.00003 10.7761 7.00003 10.5V8H4.50003C4.22389 8 4.00003 7.77614 4.00003 7.5C4.00003 7.22386 4.22389 7 4.50003 7H7.00003V4.5C7.00003 4.22386 7.22389 4 7.50003 4Z"
    fill="currentColor"
  ></path>
</symbol>
<symbol viewBox="0 0 15 15" fill="none" id="plus">
  <path     fill-rule="evenodd"
    clip-rule="evenodd"
    d="M8 2.75C8 2.47386 7.77614 2.25 7.5 2.25C7.22386 2.25 7 2.47386 7 2.75V7H2.75C2.47386 7 2.25 7.22386 2.25 7.5C2.25 7.77614 2.47386 8 2.75 8H7V12.25C7 12.5261 7.22386 12.75 7.5 12.75C7.77614 12.75 8 12.5261 8 12.25V8H12.25C12.5261 8 12.75 7.77614 12.75 7.5C12.75 7.22386 12.5261 7 12.25 7H8V2.75Z"
    fill="currentColor"
  ></path>
</symbol>
<symbol viewBox="0 0 15 15" fill="none" id="question-mark-circled">
  <path     fill-rule="evenodd"
    clip-rule="evenodd"
    d="M0.877075 7.49972C0.877075 3.84204 3.84222 0.876892 7.49991 0.876892C11.1576 0.876892 14.1227 3.84204 14.1227 7.49972C14.1227 11.1574 11.1576 14.1226 7.49991 14.1226C3.84222 14.1226 0.877075 11.1574 0.877075 7.49972ZM7.49991 1.82689C4.36689 1.82689 1.82708 4.36671 1.82708 7.49972C1.82708 10.6327 4.36689 13.1726 7.49991 13.1726C10.6329 13.1726 13.1727 10.6327 13.1727 7.49972C13.1727 4.36671 10.6329 1.82689 7.49991 1.82689ZM8.24993 10.5C8.24993 10.9142 7.91414 11.25 7.49993 11.25C7.08571 11.25 6.74993 10.9142 6.74993 10.5C6.74993 10.0858 7.08571 9.75 7.49993 9.75C7.91414 9.75 8.24993 10.0858 8.24993 10.5ZM6.05003 6.25C6.05003 5.57211 6.63511 4.925 7.50003 4.925C8.36496 4.925 8.95003 5.57211 8.95003 6.25C8.95003 6.74118 8.68002 6.99212 8.21447 7.27494C8.16251 7.30651 8.10258 7.34131 8.03847 7.37854L8.03841 7.37858C7.85521 7.48497 7.63788 7.61119 7.47449 7.73849C7.23214 7.92732 6.95003 8.23198 6.95003 8.7C6.95004 9.00376 7.19628 9.25 7.50004 9.25C7.8024 9.25 8.04778 9.00601 8.05002 8.70417L8.05056 8.7033C8.05924 8.6896 8.08493 8.65735 8.15058 8.6062C8.25207 8.52712 8.36508 8.46163 8.51567 8.37436L8.51571 8.37433C8.59422 8.32883 8.68296 8.27741 8.78559 8.21506C9.32004 7.89038 10.05 7.35382 10.05 6.25C10.05 4.92789 8.93511 3.825 7.50003 3.825C6.06496 3.825 4.95003 4.92789 4.95003 6.25C4.95003 6.55376 5.19628 6.8 5.50003 6.8C5.80379 6.8 6.05003 6.55376 6.05003 6.25Z"
    fill="currentColor"
  ></path>
</symbol>
<symbol viewBox="0 0 15 15" fill="none" id="reset">
  <path     fill-rule="evenodd"
    clip-rule="evenodd"
    d="M4.85355 2.14645C5.04882 2.34171 5.04882 2.65829 4.85355 2.85355L3.70711 4H9C11.4853 4 13.5 6.01472 13.5 8.5C13.5 10.9853 11.4853 13 9 13H5C4.72386 13 4.5 12.7761 4.5 12.5C4.5 12.2239 4.72386 12 5 12H9C10.933 12 12.5 10.433 12.5 8.5C12.5 6.567 10.933 5 9 5H3.70711L4.85355 6.14645C5.04882 6.34171 5.04882 6.65829 4.85355 6.85355C4.65829 7.04882 4.34171 7.04882 4.14645 6.85355L2.14645 4.85355C1.95118 4.65829 1.95118 4.34171 2.14645 4.14645L4.14645 2.14645C4.34171 1.95118 4.65829 1.95118 4.85355 2.14645Z"
    fill="currentColor"
  ></path>
</symbol>
<symbol viewBox="0 0 24 24" fill="none" stroke="currentColor" strokeWidth="2" strokeLinecap="round" strokeLinejoin="round" id="skull">
    <circle cx="9" cy="12" r="1" ></circle>
    <circle cx="15" cy="12" r="1" ></circle>
    <path d="M8 20v2h8v-2" ></path>
    <path d="m12.5 17-.5-1-.5 1h1z" ></path>
    <path d="M16 20a2 2 0 0 0 1.56-3.25 8 8 0 1 0-11.12 0A2 2 0 0 0 8 20" ></path>
</symbol>
<symbol viewBox="0 0 15 15" fill="none" id="sun">
  <path     fill-rule="evenodd"
    clip-rule="evenodd"
    d="M7.5 0C7.77614 0 8 0.223858 8 0.5V2.5C8 2.77614 7.77614 3 7.5 3C7.22386 3 7 2.77614 7 2.5V0.5C7 0.223858 7.22386 0 7.5 0ZM2.1967 2.1967C2.39196 2.00144 2.70854 2.00144 2.90381 2.1967L4.31802 3.61091C4.51328 3.80617 4.51328 4.12276 4.31802 4.31802C4.12276 4.51328 3.80617 4.51328 3.61091 4.31802L2.1967 2.90381C2.00144 2.70854 2.00144 2.39196 2.1967 2.1967ZM0.5 7C0.223858 7 0 7.22386 0 7.5C0 7.77614 0.223858 8 0.5 8H2.5C2.77614 8 3 7.77614 3 7.5C3 7.22386 2.77614 7 2.5 7H0.5ZM2.1967 12.8033C2.00144 12.608 2.00144 12.2915 2.1967 12.0962L3.61091 10.682C3.80617 10.4867 4.12276 10.4867 4.31802 10.682C4.51328 10.8772 4.51328 11.1938 4.31802 11.3891L2.90381 12.8033C2.70854 12.9986 2.39196 12.9986 2.1967 12.8033ZM12.5 7C12.2239 7 12 7.22386 12 7.5C12 7.77614 12.2239 8 12.5 8H14.5C14.7761 8 15 7.77614 15 7.5C15 7.22386 14.7761 7 14.5 7H12.5ZM10.682 4.31802C10.4867 4.12276 10.4867 3.80617 10.682 3.61091L12.0962 2.1967C12.2915 2.00144 12.608 2.00144 12.8033 2.1967C12.9986 2.39196 12.9986 2.70854 12.8033 2.90381L11.3891 4.31802C11.1938 4.51328 10.8772 4.51328 10.682 4.31802ZM8 12.5C8 12.2239 7.77614 12 7.5 12C7.22386 12 7 12.2239 7 12.5V14.5C7 14.7761 7.22386 15 7.5 15C7.77614 15 8 14.7761 8 14.5V12.5ZM10.682 10.682C10.8772 10.4867 11.1938 10.4867 11.3891 10.682L12.8033 12.0962C12.9986 12.2915 12.9986 12.608 12.8033 12.8033C12.608 12.9986 12.2915 12.9986 12.0962 12.8033L10.682 11.3891C10.4867 11.1938 10.4867 10.8772 10.682 10.682ZM5.5 7.5C5.5 6.39543 6.39543 5.5 7.5 5.5C8.60457 5.5 9.5 6.39543 9.5 7.5C9.5 8.60457 8.60457 9.5 7.5 9.5C6.39543 9.5 5.5 8.60457 5.5 7.5ZM7.5 4.5C5.84315 4.5 4.5 5.84315 4.5 7.5C4.5 9.15685 5.84315 10.5 7.5 10.5C9.15685 10.5 10.5 9.15685 10.5 7.5C10.5 5.84315 9.15685 4.5 7.5 4.5Z"
    fill="currentColor"
  ></path>
</symbol>
<symbol viewBox="0 0 15 15" fill="none" id="trash">
  <path     fill-rule="evenodd"
    clip-rule="evenodd"
    d="M5.5 1C5.22386 1 5 1.22386 5 1.5C5 1.77614 5.22386 2 5.5 2H9.5C9.77614 2 10 1.77614 10 1.5C10 1.22386 9.77614 1 9.5 1H5.5ZM3 3.5C3 3.22386 3.22386 3 3.5 3H5H10H11.5C11.7761 3 12 3.22386 12 3.5C12 3.77614 11.7761 4 11.5 4H11V12C11 12.5523 10.5523 13 10 13H5C4.44772 13 4 12.5523 4 12V4L3.5 4C3.22386 4 3 3.77614 3 3.5ZM5 4H10V12H5V4Z"
    fill="currentColor"
  ></path>
</symbol>
<symbol viewBox="0 0 15 15" fill="none" id="update">
  <path     fill-rule="evenodd"
    clip-rule="evenodd"
    d="M1.90321 7.29677C1.90321 10.341 4.11041 12.4147 6.58893 12.8439C6.87255 12.893 7.06266 13.1627 7.01355 13.4464C6.96444 13.73 6.69471 13.9201 6.41109 13.871C3.49942 13.3668 0.86084 10.9127 0.86084 7.29677C0.860839 5.76009 1.55996 4.55245 2.37639 3.63377C2.96124 2.97568 3.63034 2.44135 4.16846 2.03202L2.53205 2.03202C2.25591 2.03202 2.03205 1.80816 2.03205 1.53202C2.03205 1.25588 2.25591 1.03202 2.53205 1.03202L5.53205 1.03202C5.80819 1.03202 6.03205 1.25588 6.03205 1.53202L6.03205 4.53202C6.03205 4.80816 5.80819 5.03202 5.53205 5.03202C5.25591 5.03202 5.03205 4.80816 5.03205 4.53202L5.03205 2.68645L5.03054 2.68759L5.03045 2.68766L5.03044 2.68767L5.03043 2.68767C4.45896 3.11868 3.76059 3.64538 3.15554 4.3262C2.44102 5.13021 1.90321 6.10154 1.90321 7.29677ZM13.0109 7.70321C13.0109 4.69115 10.8505 2.6296 8.40384 2.17029C8.12093 2.11718 7.93465 1.84479 7.98776 1.56188C8.04087 1.27898 8.31326 1.0927 8.59616 1.14581C11.4704 1.68541 14.0532 4.12605 14.0532 7.70321C14.0532 9.23988 13.3541 10.4475 12.5377 11.3662C11.9528 12.0243 11.2837 12.5586 10.7456 12.968L12.3821 12.968C12.6582 12.968 12.8821 13.1918 12.8821 13.468C12.8821 13.7441 12.6582 13.968 12.3821 13.968L9.38205 13.968C9.10591 13.968 8.88205 13.7441 8.88205 13.468L8.88205 10.468C8.88205 10.1918 9.10591 9.96796 9.38205 9.96796C9.65819 9.96796 9.88205 10.1918 9.88205 10.468L9.88205 12.3135L9.88362 12.3123C10.4551 11.8813 11.1535 11.3546 11.7585 10.6738C12.4731 9.86976 13.0109 8.89844 13.0109 7.70321Z"
    fill="currentColor"
  ></path>
</symbol>
</defs>
</svg>
