<?xml version="1.0" encoding="UTF-8"?><svg xmlns="http://www.w3.org/2000/svg" viewBox="0 0 2318.92 387.24"><defs><style>.d{fill:#fff;}.e{fill:#f43838;}.f{fill:#1b1b21;}</style></defs><g id="a"/><g id="b"><g id="c"><g><path class="d" d="M658.73,283.29c-4.55,5.72-10.17,10.71-16.86,14.97-6.68,4.26-13.85,7.8-21.51,10.61-7.65,2.81-15.5,4.92-23.54,6.32-8.04,1.4-15.69,2.11-22.96,2.11-14.05,0-26.98-2.52-38.8-7.56-11.82-5.04-22.01-11.99-30.59-20.85-8.57-8.86-15.28-19.3-20.13-31.31-4.84-12.01-7.27-24.94-7.27-38.8,0-10.56,1.21-20.9,3.63-31.02,2.42-10.12,5.88-19.66,10.39-28.63,4.5-8.96,10-17.19,16.49-24.7,6.49-7.51,13.85-13.97,22.09-19.4,8.23-5.42,17.24-9.64,27.03-12.64,9.78-3,20.24-4.5,31.39-4.5,4.16,0,8.62,.17,13.37,.51,4.75,.34,9.47,.92,14.17,1.74,4.7,.82,9.27,1.96,13.73,3.41,4.45,1.45,8.52,3.25,12.21,5.38l-4.07,55.51c-5.43-2.03-11.02-3.41-16.78-4.14-5.77-.73-11.41-1.09-16.93-1.09-7.75,0-14.99,1.19-21.72,3.56-6.73,2.37-12.59,5.79-17.58,10.24-4.99,4.46-8.94,9.88-11.84,16.27s-4.36,13.61-4.36,21.65c0,5.04,.68,9.91,2.03,14.6,1.35,4.7,3.41,8.86,6.18,12.5s6.2,6.56,10.32,8.79c4.12,2.23,8.89,3.34,14.31,3.34,3.68,0,7.48-.48,11.41-1.45,3.92-.97,7.29-2.62,10.1-4.94l.58-11.33-34.87-.58,1.74-43.59c14.43-.48,28.87-.89,43.3-1.24,14.43-.34,28.96-.8,43.59-1.38l1.74,97.65Z"/><path class="d" d="M816.44,103.4c-.58,9.11-1.12,18.12-1.6,27.03-.49,8.91-1.12,17.92-1.89,27.03l-61.61,3.2-1.45,18.31h43.3l-3.2,45.05-43.59,1.45-1.45,21.21h61.61c-.58,10.66-1.19,21.24-1.82,31.75-.63,10.51-1.19,21.05-1.67,31.6l-125.25,2.91,4.65-209.53h133.97Z"/><path class="d" d="M958.99,103.4c-.58,9.11-1.12,18.12-1.6,27.03-.49,8.91-1.12,17.92-1.89,27.03l-61.61,3.2-1.45,18.31h43.3l-3.2,45.05-43.59,1.45-1.45,21.21h61.61c-.58,10.66-1.19,21.24-1.82,31.75-.63,10.51-1.19,21.05-1.67,31.6l-125.25,2.91,4.65-209.53h133.97Z"/><path class="d" d="M1148.18,104.85l-70.04,96.77,58.99,102.88-67.42,11.92-44.17-62.77-2.32,65.68-60.45,2.32,4.65-222.61,67.71,3.78-5.23,65.68,45.05-69.46,73.23,5.81Z"/><path class="d" d="M1290.73,108.63l-8.14,61.32c-2.81-.77-5.62-1.31-8.43-1.6-2.81-.29-5.62-.44-8.43-.44-7.17,0-14,.94-20.49,2.83-6.49,1.89-12.23,4.77-17.22,8.65-4.99,3.88-8.96,8.72-11.92,14.53-2.96,5.81-4.43,12.64-4.43,20.49,0,5.04,.8,9.4,2.4,13.08,1.6,3.68,3.85,6.73,6.76,9.15,2.91,2.42,6.34,4.21,10.32,5.38,3.97,1.16,8.33,1.74,13.08,1.74,3.58,0,7.31-.39,11.19-1.16,3.87-.77,7.7-1.79,11.48-3.05,3.78-1.26,7.46-2.71,11.04-4.36,3.58-1.65,6.88-3.34,9.88-5.09l-5.81,68.29c-3.78,1.94-7.87,3.66-12.28,5.16-4.41,1.5-8.94,2.81-13.59,3.92-4.65,1.12-9.3,1.96-13.95,2.54s-9.11,.87-13.37,.87c-12.3,0-23.78-2.28-34.44-6.83-10.66-4.55-19.91-10.8-27.75-18.74-7.85-7.94-14.02-17.31-18.53-28.12-4.5-10.8-6.76-22.45-6.76-34.95,0-16.57,2.37-32.19,7.12-46.86,4.75-14.68,11.72-27.54,20.92-38.58,9.2-11.04,20.61-19.76,34.22-26.16,13.61-6.39,29.28-9.59,47.01-9.59,6.68,0,13.54,.53,20.56,1.6,7.02,1.07,13.54,3.05,19.54,5.96Z"/><path class="d" d="M1472.8,171.7c-4.5-11.48-10.85-21.26-19.04-29.35-8.19-8.09-18.07-14.31-29.64-18.67-11.58-4.36-24.39-6.54-38.43-6.54-8.72,0-17,1.21-24.85,3.63-7.85,2.42-15.14,5.81-21.87,10.17-6.73,4.36-12.81,9.54-18.24,15.55-5.43,6.01-10.05,12.59-13.88,19.76-3.83,7.17-6.76,14.8-8.79,22.89-2.03,8.09-3.05,16.35-3.05,24.77s1.09,16.91,3.27,24.85c2.18,7.94,5.23,15.38,9.15,22.3,3.92,6.93,8.67,13.22,14.24,18.89,5.57,5.67,11.79,10.51,18.67,14.53,6.88,4.02,14.26,7.15,22.16,9.37,7.89,2.23,16.2,3.34,24.92,3.34s17.53-1.19,25.57-3.56c8.04-2.37,15.48-5.69,22.3-9.95,6.83-4.26,12.98-9.37,18.45-15.33,5.47-5.96,10.12-12.52,13.95-19.69,3.83-7.17,6.76-14.84,8.79-23.03,2.03-8.18,3.05-16.68,3.05-25.5,0-14.14-2.25-26.95-6.76-38.43Z"/><path class="d" d="M1687.27,104.56l-10.46,197.04-76.14,6.97-40.69-105.49-6.39,107.53h-65.39l5.23-206.05,72.65-3.49,50.28,104.62,2.32-98.81,68.59-2.32Z"/><path class="d" d="M1847.83,235.63c0,13.27-2.3,24.87-6.9,34.8-4.6,9.93-10.9,18.19-18.89,24.77-7.99,6.59-17.34,11.53-28.04,14.82-10.71,3.29-22.21,4.94-34.51,4.94-4.75,0-9.95-.63-15.62-1.89s-11.41-2.83-17.22-4.72-11.41-3.92-16.78-6.1c-5.38-2.18-10.15-4.24-14.31-6.18l6.39-59.87c8.23,4.94,17.36,8.7,27.39,11.26,10.03,2.57,19.88,3.85,29.57,3.85,1.84,0,4.07-.07,6.68-.22s5.11-.58,7.48-1.31c2.37-.73,4.38-1.82,6.03-3.27,1.65-1.45,2.47-3.53,2.47-6.25,0-1.84-.58-3.41-1.74-4.72s-2.67-2.37-4.5-3.2c-1.84-.82-3.92-1.45-6.25-1.89s-4.6-.75-6.83-.94c-2.23-.19-4.31-.29-6.25-.29h-4.65c-8.33,0-15.91-1.45-22.74-4.36-6.83-2.91-12.69-6.95-17.58-12.13-4.89-5.18-8.7-11.33-11.41-18.45-2.71-7.12-4.07-14.84-4.07-23.18,0-11.43,2.3-21.67,6.9-30.73,4.6-9.06,10.75-16.76,18.45-23.1,7.7-6.34,16.54-11.21,26.52-14.6,9.98-3.39,20.29-5.09,30.95-5.09,4.75,0,9.64,.17,14.68,.51,5.04,.34,10.05,.94,15.04,1.82,4.99,.87,9.86,1.99,14.6,3.34,4.75,1.36,9.25,3.05,13.51,5.09l-5.52,58.99c-6.59-2.23-13.49-4.09-20.71-5.59-7.22-1.5-14.27-2.25-21.14-2.25-1.26,0-2.88,.03-4.87,.07-1.99,.05-4.07,.19-6.25,.44-2.18,.24-4.38,.61-6.61,1.09-2.23,.49-4.21,1.14-5.96,1.96-1.74,.82-3.15,1.91-4.21,3.27-1.07,1.36-1.55,2.96-1.45,4.8,.1,2.13,.89,3.85,2.4,5.16,1.5,1.31,3.44,2.32,5.81,3.05,2.37,.73,4.99,1.24,7.85,1.53,2.86,.29,5.69,.46,8.5,.51,2.81,.05,5.42,.05,7.85,0,2.42-.05,4.41,.03,5.96,.22,7.75,.49,14.72,2.13,20.92,4.94,6.2,2.81,11.45,6.54,15.77,11.19,4.31,4.65,7.6,10.2,9.88,16.64,2.28,6.44,3.41,13.54,3.41,21.29Z"/><path class="d" d="M2036.59,210.35c0,8.82-1.02,17.32-3.05,25.5-2.03,8.19-4.97,15.86-8.79,23.03-3.83,7.17-8.48,13.73-13.95,19.69-5.47,5.96-11.62,11.07-18.45,15.33-6.83,4.26-14.27,7.58-22.3,9.95-8.04,2.37-16.57,3.56-25.57,3.56s-17.03-1.11-24.92-3.34c-7.9-2.23-15.28-5.35-22.16-9.37-6.88-4.02-13.1-8.86-18.67-14.53-5.57-5.67-10.32-11.96-14.24-18.89-3.92-6.93-6.97-14.36-9.15-22.3-2.18-7.94-3.27-16.22-3.27-24.85s1.02-16.68,3.05-24.77c2.03-8.09,4.96-15.72,8.79-22.89,3.83-7.17,8.45-13.75,13.88-19.76,5.42-6,11.5-11.19,18.24-15.55,6.73-4.36,14.02-7.75,21.87-10.17,7.85-2.42,16.13-3.63,24.85-3.63,14.05,0,26.86,2.18,38.43,6.54,11.57,4.36,21.46,10.58,29.64,18.67,8.18,8.09,14.53,17.87,19.04,29.35s6.76,24.29,6.76,38.43Zm-64.52,3.78c0-4.16-.61-8.21-1.82-12.13-1.21-3.92-2.98-7.41-5.3-10.46s-5.21-5.52-8.65-7.41c-3.44-1.89-7.39-2.83-11.84-2.83s-8.62,.82-12.21,2.47c-3.59,1.65-6.66,3.9-9.23,6.76-2.57,2.86-4.53,6.2-5.88,10.03-1.36,3.83-2.03,7.87-2.03,12.13s.58,8.14,1.74,12.21,2.91,7.75,5.23,11.04c2.32,3.29,5.21,5.96,8.65,7.99,3.44,2.03,7.43,3.05,11.99,3.05s8.65-.89,12.28-2.69c3.63-1.79,6.71-4.21,9.23-7.27,2.52-3.05,4.45-6.56,5.81-10.53,1.35-3.97,2.03-8.09,2.03-12.35Z"/><path class="d" d="M2174.49,230.11l-6.1,64.52-122.35,9.59c.58-33.81,1.24-67.42,1.96-100.84,.73-33.42,1.62-67.03,2.69-100.84h75.56c-2.23,21.21-4.36,42.41-6.39,63.57-2.03,21.17-3.49,42.5-4.36,64.01,4.55,.19,9.06,.29,13.51,.29h13.51c5.42,0,10.75-.05,15.98-.15,5.23-.1,10.56-.15,15.98-.15Z"/><path class="d" d="M2318.92,103.4c-.58,9.11-1.12,18.12-1.6,27.03-.49,8.91-1.12,17.92-1.89,27.03l-61.61,3.2-1.45,18.31h43.3l-3.2,45.05-43.59,1.45-1.45,21.21h61.61c-.58,10.66-1.19,21.24-1.82,31.75-.63,10.51-1.19,21.05-1.67,31.6l-125.25,2.91,4.65-209.53h133.97Z"/><g><path class="d" d="M1382.76,142.94l-38.18,61.58c-1.24,2-.37,4.64,1.81,5.51l39.6,15.84c1.73,.69,2.7,2.54,2.29,4.35l-10.92,48.34c-.92,4.06,4.44,6.42,6.81,2.99l45.73-66.08c1.4-2.03,.53-4.84-1.78-5.7l-42.5-15.94c-1.67-.63-2.68-2.33-2.42-4.1l6.53-44.25c.6-4.07-4.8-6.04-6.97-2.55Z"/><path class="d" d="M1381.1,288.21c-1.2,0-2.41-.25-3.59-.76-3.91-1.72-5.98-5.82-5.04-9.98l10.69-47.33-38.64-15.46c-2.42-.97-4.27-2.94-5.08-5.42-.81-2.47-.49-5.16,.88-7.38l38.18-61.58c2.22-3.58,6.53-5.07,10.49-3.62,3.96,1.45,6.29,5.37,5.67,9.54l-6.39,43.28,41.58,15.59c2.55,.96,4.49,3,5.3,5.6,.81,2.6,.39,5.38-1.16,7.63l-45.73,66.08c-1.7,2.46-4.38,3.81-7.17,3.81Zm-31.52-82.28l38.26,15.3c4.03,1.61,6.27,5.86,5.31,10.1l-9.54,42.25,41.29-59.67-41.04-15.39c-3.85-1.44-6.21-5.44-5.61-9.51l5.68-38.46-34.34,55.38Z"/></g><path class="e" d="M1382.76,142.94l-38.18,61.58c-1.24,2-.37,4.64,1.81,5.51l39.6,15.84c1.73,.69,2.7,2.54,2.29,4.35l-10.92,48.34c-.92,4.06,4.44,6.42,6.81,2.99l45.73-66.08c1.4-2.03,.53-4.84-1.78-5.7l-42.5-15.94c-1.67-.63-2.68-2.33-2.42-4.1l6.53-44.25c.6-4.07-4.8-6.04-6.97-2.55Z"/><path class="d" d="M290.59,271.77l-87.91-.09v-.09l-87.91,.09-16.13,29.01c-1.35,3.32-1.48,7.02-.37,10.42l20.82,60.95c1.17,3.58,4.32,6.15,8.06,6.59l24.66,2.87c5.85,.68,10.95-3.99,10.77-9.88l-1.16-38.4c-.03-.89,1.25-1.08,1.48-.21l11.87,44.85c1.02,3.86,4.32,6.7,8.29,7.13l19.62,2.14v.09l19.62-2.14c3.97-.43,7.26-3.27,8.29-7.13l11.87-44.85c.23-.86,1.5-.68,1.48,.21l-1.16,38.4c-.18,5.89,4.91,10.56,10.77,9.88l24.62-2.87c3.76-.44,6.92-3.04,8.08-6.64l20.44-61.04c1.06-3.32,.95-6.91-.32-10.15l-15.77-29.14Z"/><path class="d" d="M372.92,151.32c0,48.38-10.71,94.4-47.62,126.17-30.59,26.33-77.47,42.87-122.85,42.87s-92.23-16.53-122.81-42.83c-36.94-31.77-47.67-77.81-47.67-126.21C31.97,62.85,119.39,0,202.44,0s170.48,62.85,170.48,151.32Z"/><path class="f" d="M175.7,231.37c4.59-4,2.74-11.51-3.18-12.91-19.76-4.67-57.98-14.26-71.97-21.6-9.95-5.23-19.69-12.21-26.86-17.81-4.38-3.42-10.67,.29-9.81,5.78,3.68,23.4,15.64,65.42,54.04,65.42,30.09,0,48.16-10.51,57.78-18.88Z"/><path class="f" d="M228.53,231.37c-4.59-4-2.74-11.51,3.18-12.91,19.76-4.67,57.98-14.26,71.97-21.6,9.95-5.23,19.69-12.21,26.86-17.81,4.38-3.42,10.67,.29,9.81,5.78-3.68,23.4-15.64,65.42-54.04,65.42-30.09,0-48.16-10.51-57.78-18.88Z"/><path class="f" d="M204.59,229.38c-.68-.4-1.46-.62-2.36-.62-.05,0-.09,0-.14,0-.05,0-.09,0-.14,0-.9,0-1.69,.22-2.36,.62-13.02,6.11-23.19,55.58-12.5,55.58,6.37,0,13.91-6.57,15-7.54,1.08,.97,8.63,7.54,15,7.54,10.9,0,.52-49.47-12.5-55.58Z"/><g><path class="d" d="M115.22,190.86l-19.53,31.5c-.63,1.02-.19,2.37,.93,2.82l20.26,8.1c.88,.35,1.38,1.3,1.17,2.23l-5.59,24.73c-.47,2.08,2.27,3.28,3.48,1.53l23.4-33.81c.72-1.04,.27-2.47-.91-2.92l-21.74-8.15c-.85-.32-1.37-1.19-1.24-2.1l3.34-22.64c.31-2.08-2.46-3.09-3.56-1.3Z"/><path class="d" d="M114.37,265.34c-.63,0-1.28-.13-1.9-.4-2.07-.91-3.17-3.08-2.67-5.29l5.44-24.08-19.64-7.86c-1.28-.51-2.26-1.56-2.69-2.87-.43-1.31-.26-2.73,.47-3.91l19.53-31.5c1.18-1.9,3.46-2.68,5.55-1.92,2.09,.77,3.33,2.84,3,5.05l-3.25,22.01,21.15,7.93c1.35,.51,2.38,1.59,2.81,2.97,.43,1.38,.21,2.85-.61,4.04l-23.4,33.81c-.9,1.3-2.32,2.02-3.8,2.02Zm-15.89-42.33l19.4,7.76c2.14,.85,3.32,3.1,2.81,5.35l-4.7,20.82,20.55-29.69-20.81-7.8c-2.04-.76-3.29-2.88-2.97-5.04l2.79-18.93-17.07,27.53Z"/></g><path class="e" d="M115.22,190.86l-19.53,31.5c-.63,1.02-.19,2.37,.93,2.82l20.26,8.1c.88,.35,1.38,1.3,1.17,2.23l-5.59,24.73c-.47,2.08,2.27,3.28,3.48,1.53l23.4-33.81c.72-1.04,.27-2.47-.91-2.92l-21.74-8.15c-.85-.32-1.37-1.19-1.24-2.1l3.34-22.64c.31-2.08-2.46-3.09-3.56-1.3Z"/><path class="d" d="M373.48,253.35h-6.2c-15.45,0-27.29-13.75-24.99-29.03l12.4-82.46c1.86-12.37,12.49-21.51,24.99-21.51h0c14.7,0,26.3,12.5,25.2,27.17l-6.2,82.46c-.99,13.19-11.98,23.38-25.2,23.38Z"/><path class="d" d="M31.47,253.35h6.2c15.45,0,27.29-13.75,24.99-29.03l-12.4-82.46c-1.86-12.37-12.49-21.51-24.99-21.51h0c-14.7,0-26.3,12.5-25.2,27.17l6.2,82.46c.99,13.19,11.98,23.38,25.2,23.38Z"/></g></g></g></svg>